<mxfile host="Electron" agent="Mozilla/5.0 (Windows NT 10.0; Win64; x64) AppleWebKit/537.36 (KHTML, like Gecko) draw.io/25.0.2 Chrome/128.0.6613.186 Electron/32.2.5 Safari/537.36" version="25.0.2">
  <diagram name="Page-1" id="p8OHBuyGf0h3IvYZX40W">
    <mxGraphModel dx="5058" dy="3373" grid="1" gridSize="10" guides="1" tooltips="1" connect="1" arrows="1" fold="1" page="1" pageScale="1" pageWidth="827" pageHeight="1169" math="0" shadow="0">
      <root>
        <mxCell id="0" />
        <mxCell id="1" parent="0" />
        <mxCell id="Y6noLsDlf5R4uo8bpIC0-19" style="edgeStyle=orthogonalEdgeStyle;rounded=0;orthogonalLoop=1;jettySize=auto;html=1;" parent="1" source="Y6noLsDlf5R4uo8bpIC0-6" target="Y6noLsDlf5R4uo8bpIC0-18" edge="1">
          <mxGeometry relative="1" as="geometry" />
        </mxCell>
        <mxCell id="Y6noLsDlf5R4uo8bpIC0-21" style="edgeStyle=orthogonalEdgeStyle;rounded=0;orthogonalLoop=1;jettySize=auto;html=1;" parent="1" source="Y6noLsDlf5R4uo8bpIC0-6" target="Y6noLsDlf5R4uo8bpIC0-20" edge="1">
          <mxGeometry relative="1" as="geometry" />
        </mxCell>
        <mxCell id="Y6noLsDlf5R4uo8bpIC0-42" style="edgeStyle=orthogonalEdgeStyle;rounded=0;orthogonalLoop=1;jettySize=auto;html=1;" parent="1" source="Y6noLsDlf5R4uo8bpIC0-6" target="Y6noLsDlf5R4uo8bpIC0-34" edge="1">
          <mxGeometry relative="1" as="geometry" />
        </mxCell>
        <mxCell id="Y6noLsDlf5R4uo8bpIC0-148" style="edgeStyle=orthogonalEdgeStyle;rounded=0;orthogonalLoop=1;jettySize=auto;html=1;" parent="1" source="Y6noLsDlf5R4uo8bpIC0-6" target="Y6noLsDlf5R4uo8bpIC0-146" edge="1">
          <mxGeometry relative="1" as="geometry">
            <Array as="points">
              <mxPoint x="1220" y="-515" />
            </Array>
          </mxGeometry>
        </mxCell>
        <mxCell id="Y6noLsDlf5R4uo8bpIC0-209" style="edgeStyle=orthogonalEdgeStyle;rounded=0;orthogonalLoop=1;jettySize=auto;html=1;" parent="1" source="Y6noLsDlf5R4uo8bpIC0-6" target="Y6noLsDlf5R4uo8bpIC0-149" edge="1">
          <mxGeometry relative="1" as="geometry" />
        </mxCell>
        <mxCell id="Y6noLsDlf5R4uo8bpIC0-6" value="" style="points=[];aspect=fixed;html=1;align=center;shadow=0;dashed=0;fillColor=#FF6A00;strokeColor=none;shape=mxgraph.alibaba_cloud.vpc_virtual_private_cloud;" parent="1" vertex="1">
          <mxGeometry x="40" y="-550" width="109.02" height="70" as="geometry" />
        </mxCell>
        <mxCell id="Y6noLsDlf5R4uo8bpIC0-8" value="Private subnet" style="points=[[0,0],[0.25,0],[0.5,0],[0.75,0],[1,0],[1,0.25],[1,0.5],[1,0.75],[1,1],[0.75,1],[0.5,1],[0.25,1],[0,1],[0,0.75],[0,0.5],[0,0.25]];outlineConnect=0;gradientColor=none;html=1;whiteSpace=wrap;fontSize=12;fontStyle=0;container=1;pointerEvents=0;collapsible=0;recursiveResize=0;shape=mxgraph.aws4.group;grIcon=mxgraph.aws4.group_security_group;grStroke=0;strokeColor=#00A4A6;fillColor=#E6F6F7;verticalAlign=top;align=left;spacingLeft=30;fontColor=#147EBA;dashed=0;" parent="1" vertex="1">
          <mxGeometry x="-70.45" y="-220" width="120" height="105" as="geometry" />
        </mxCell>
        <mxCell id="Y6noLsDlf5R4uo8bpIC0-10" value="Public subnet" style="points=[[0,0],[0.25,0],[0.5,0],[0.75,0],[1,0],[1,0.25],[1,0.5],[1,0.75],[1,1],[0.75,1],[0.5,1],[0.25,1],[0,1],[0,0.75],[0,0.5],[0,0.25]];outlineConnect=0;gradientColor=none;html=1;whiteSpace=wrap;fontSize=12;fontStyle=0;container=1;pointerEvents=0;collapsible=0;recursiveResize=0;shape=mxgraph.aws4.group;grIcon=mxgraph.aws4.group_security_group;grStroke=0;strokeColor=#7AA116;fillColor=#F2F6E8;verticalAlign=top;align=left;spacingLeft=30;fontColor=#248814;dashed=0;" parent="1" vertex="1">
          <mxGeometry x="129.55" y="-225" width="120" height="100" as="geometry" />
        </mxCell>
        <mxCell id="Y6noLsDlf5R4uo8bpIC0-25" style="edgeStyle=orthogonalEdgeStyle;rounded=0;orthogonalLoop=1;jettySize=auto;html=1;" parent="1" source="Y6noLsDlf5R4uo8bpIC0-18" target="Y6noLsDlf5R4uo8bpIC0-24" edge="1">
          <mxGeometry relative="1" as="geometry" />
        </mxCell>
        <mxCell id="Y6noLsDlf5R4uo8bpIC0-18" value="Internet&#xa;gateway" style="sketch=0;outlineConnect=0;fontColor=#232F3E;gradientColor=none;strokeColor=#232F3E;fillColor=#ffffff;dashed=0;verticalLabelPosition=bottom;verticalAlign=top;align=center;html=1;fontSize=12;fontStyle=0;aspect=fixed;shape=mxgraph.aws4.resourceIcon;resIcon=mxgraph.aws4.internet_gateway;" parent="1" vertex="1">
          <mxGeometry x="380" y="230" width="100" height="100" as="geometry" />
        </mxCell>
        <mxCell id="Y6noLsDlf5R4uo8bpIC0-49" style="edgeStyle=orthogonalEdgeStyle;rounded=0;orthogonalLoop=1;jettySize=auto;html=1;" parent="1" source="Y6noLsDlf5R4uo8bpIC0-20" target="Y6noLsDlf5R4uo8bpIC0-34" edge="1">
          <mxGeometry relative="1" as="geometry">
            <Array as="points">
              <mxPoint x="-580" y="90" />
              <mxPoint x="-580" y="565" />
            </Array>
          </mxGeometry>
        </mxCell>
        <mxCell id="Y6noLsDlf5R4uo8bpIC0-20" value="NAT gateway" style="sketch=0;outlineConnect=0;fontColor=#232F3E;gradientColor=none;strokeColor=#232F3E;fillColor=#ffffff;dashed=0;verticalLabelPosition=bottom;verticalAlign=top;align=center;html=1;fontSize=12;fontStyle=0;aspect=fixed;shape=mxgraph.aws4.resourceIcon;resIcon=mxgraph.aws4.nat_gateway;" parent="1" vertex="1">
          <mxGeometry x="-840" y="40" width="100" height="100" as="geometry" />
        </mxCell>
        <mxCell id="Y6noLsDlf5R4uo8bpIC0-51" style="edgeStyle=orthogonalEdgeStyle;rounded=0;orthogonalLoop=1;jettySize=auto;html=1;" parent="1" source="Y6noLsDlf5R4uo8bpIC0-24" target="Y6noLsDlf5R4uo8bpIC0-36" edge="1">
          <mxGeometry relative="1" as="geometry" />
        </mxCell>
        <mxCell id="Y6noLsDlf5R4uo8bpIC0-56" style="edgeStyle=orthogonalEdgeStyle;rounded=0;orthogonalLoop=1;jettySize=auto;html=1;" parent="1" source="Y6noLsDlf5R4uo8bpIC0-24" target="Y6noLsDlf5R4uo8bpIC0-55" edge="1">
          <mxGeometry relative="1" as="geometry" />
        </mxCell>
        <mxCell id="Y6noLsDlf5R4uo8bpIC0-24" value="Elastic IP&#xa;Address" style="sketch=0;outlineConnect=0;fontColor=#232F3E;gradientColor=none;strokeColor=#232F3E;fillColor=#ffffff;dashed=0;verticalLabelPosition=bottom;verticalAlign=top;align=center;html=1;fontSize=12;fontStyle=0;aspect=fixed;shape=mxgraph.aws4.resourceIcon;resIcon=mxgraph.aws4.elastic_ip_address;" parent="1" vertex="1">
          <mxGeometry x="590" y="220" width="100" height="100" as="geometry" />
        </mxCell>
        <mxCell id="Y6noLsDlf5R4uo8bpIC0-34" value="Amazon EC2" style="sketch=0;outlineConnect=0;fontColor=#232F3E;gradientColor=none;strokeColor=#ffffff;fillColor=#232F3E;dashed=0;verticalLabelPosition=middle;verticalAlign=bottom;align=center;html=1;whiteSpace=wrap;fontSize=10;fontStyle=1;spacing=3;shape=mxgraph.aws4.productIcon;prIcon=mxgraph.aws4.ec2;" parent="1" vertex="1">
          <mxGeometry x="274" y="545" width="120" height="140" as="geometry" />
        </mxCell>
        <mxCell id="Y6noLsDlf5R4uo8bpIC0-36" value="Amazon EC2" style="sketch=0;outlineConnect=0;fontColor=#232F3E;gradientColor=none;strokeColor=#ffffff;fillColor=#232F3E;dashed=0;verticalLabelPosition=middle;verticalAlign=bottom;align=center;html=1;whiteSpace=wrap;fontSize=10;fontStyle=1;spacing=3;shape=mxgraph.aws4.productIcon;prIcon=mxgraph.aws4.ec2;" parent="1" vertex="1">
          <mxGeometry x="640" y="545" width="120" height="140" as="geometry" />
        </mxCell>
        <mxCell id="Y6noLsDlf5R4uo8bpIC0-38" value="Gitlab Self hoste Sever" style="text;html=1;align=center;verticalAlign=middle;whiteSpace=wrap;rounded=0;fontSize=20;fontColor=#FF0000;" parent="1" vertex="1">
          <mxGeometry x="630" y="465" width="60" height="50" as="geometry" />
        </mxCell>
        <mxCell id="Y6noLsDlf5R4uo8bpIC0-40" value="Project 6363 Server" style="text;html=1;align=center;verticalAlign=middle;whiteSpace=wrap;rounded=0;fontSize=20;fontColor=#FF0000;" parent="1" vertex="1">
          <mxGeometry x="304" y="700" width="60" height="40" as="geometry" />
        </mxCell>
        <mxCell id="Y6noLsDlf5R4uo8bpIC0-43" value="" style="points=[];aspect=fixed;html=1;align=center;shadow=0;dashed=0;fillColor=#FF6A00;strokeColor=none;shape=mxgraph.alibaba_cloud.route_table;" parent="1" vertex="1">
          <mxGeometry x="-80" y="330" width="79.11" height="100" as="geometry" />
        </mxCell>
        <mxCell id="Y6noLsDlf5R4uo8bpIC0-47" value="" style="points=[];aspect=fixed;html=1;align=center;shadow=0;dashed=0;fillColor=#FF6A00;strokeColor=none;shape=mxgraph.alibaba_cloud.route_table;" parent="1" vertex="1">
          <mxGeometry x="180" y="330" width="79.11" height="100" as="geometry" />
        </mxCell>
        <mxCell id="Y6noLsDlf5R4uo8bpIC0-53" value="&lt;font color=&quot;#ff0000&quot; style=&quot;font-size: 20px;&quot;&gt;Private RTA&lt;/font&gt;" style="text;html=1;align=center;verticalAlign=middle;whiteSpace=wrap;rounded=0;" parent="1" vertex="1">
          <mxGeometry x="-70.44999999999999" y="440" width="60" height="30" as="geometry" />
        </mxCell>
        <mxCell id="Y6noLsDlf5R4uo8bpIC0-54" value="&lt;font color=&quot;#ff3333&quot; style=&quot;font-size: 20px;&quot;&gt;Public RTA&lt;/font&gt;" style="text;html=1;align=center;verticalAlign=middle;whiteSpace=wrap;rounded=0;" parent="1" vertex="1">
          <mxGeometry x="199.11" y="440" width="60" height="30" as="geometry" />
        </mxCell>
        <mxCell id="Y6noLsDlf5R4uo8bpIC0-55" value="Amazon EC2" style="sketch=0;outlineConnect=0;fontColor=#232F3E;gradientColor=none;strokeColor=#ffffff;fillColor=#232F3E;dashed=0;verticalLabelPosition=middle;verticalAlign=bottom;align=center;html=1;whiteSpace=wrap;fontSize=10;fontStyle=1;spacing=3;shape=mxgraph.aws4.productIcon;prIcon=mxgraph.aws4.ec2;" parent="1" vertex="1">
          <mxGeometry x="850" y="545" width="120" height="140" as="geometry" />
        </mxCell>
        <mxCell id="Y6noLsDlf5R4uo8bpIC0-57" value="Project636VPN" style="text;html=1;align=center;verticalAlign=middle;whiteSpace=wrap;rounded=0;fontSize=20;fontColor=#FF3333;" parent="1" vertex="1">
          <mxGeometry x="890" y="680" width="60" height="30" as="geometry" />
        </mxCell>
        <mxCell id="f_NNupDaaMzZWTMAwLuJ-4" style="edgeStyle=orthogonalEdgeStyle;rounded=0;orthogonalLoop=1;jettySize=auto;html=1;entryX=0.5;entryY=0;entryDx=0;entryDy=0;" parent="1" source="Y6noLsDlf5R4uo8bpIC0-59" target="f_NNupDaaMzZWTMAwLuJ-2" edge="1">
          <mxGeometry relative="1" as="geometry">
            <Array as="points">
              <mxPoint x="-830" y="1110" />
            </Array>
          </mxGeometry>
        </mxCell>
        <mxCell id="Y6noLsDlf5R4uo8bpIC0-59" value="Amazon EC2" style="sketch=0;outlineConnect=0;fontColor=#232F3E;gradientColor=none;strokeColor=#ffffff;fillColor=#232F3E;dashed=0;verticalLabelPosition=middle;verticalAlign=bottom;align=center;html=1;whiteSpace=wrap;fontSize=10;fontStyle=1;spacing=3;shape=mxgraph.aws4.productIcon;prIcon=mxgraph.aws4.ec2;" parent="1" vertex="1">
          <mxGeometry x="-780" y="1050" width="120" height="140" as="geometry" />
        </mxCell>
        <mxCell id="Y6noLsDlf5R4uo8bpIC0-61" value="Node Group&amp;nbsp;" style="text;html=1;align=center;verticalAlign=middle;whiteSpace=wrap;rounded=0;fontSize=20;fontColor=#FF3333;" parent="1" vertex="1">
          <mxGeometry x="-610" y="930" width="60" height="30" as="geometry" />
        </mxCell>
        <mxCell id="Y6noLsDlf5R4uo8bpIC0-62" value="VPC" style="text;html=1;align=center;verticalAlign=middle;whiteSpace=wrap;rounded=0;fontSize=20;fontColor=#FF3333;" parent="1" vertex="1">
          <mxGeometry x="-2.842170943040401e-14" y="-570" width="60" height="30" as="geometry" />
        </mxCell>
        <mxCell id="f_NNupDaaMzZWTMAwLuJ-9" style="edgeStyle=orthogonalEdgeStyle;rounded=0;orthogonalLoop=1;jettySize=auto;html=1;entryX=0.5;entryY=0;entryDx=0;entryDy=0;" parent="1" source="Y6noLsDlf5R4uo8bpIC0-63" target="f_NNupDaaMzZWTMAwLuJ-5" edge="1">
          <mxGeometry relative="1" as="geometry">
            <mxPoint x="-410" y="1290" as="targetPoint" />
            <Array as="points">
              <mxPoint x="-410" y="1110" />
            </Array>
          </mxGeometry>
        </mxCell>
        <mxCell id="Y6noLsDlf5R4uo8bpIC0-63" value="Amazon EC2" style="sketch=0;outlineConnect=0;fontColor=#232F3E;gradientColor=none;strokeColor=#ffffff;fillColor=#232F3E;dashed=0;verticalLabelPosition=middle;verticalAlign=bottom;align=center;html=1;whiteSpace=wrap;fontSize=10;fontStyle=1;spacing=3;shape=mxgraph.aws4.productIcon;prIcon=mxgraph.aws4.ec2;" parent="1" vertex="1">
          <mxGeometry x="-570" y="1050" width="120" height="140" as="geometry" />
        </mxCell>
        <mxCell id="Y6noLsDlf5R4uo8bpIC0-67" style="edgeStyle=orthogonalEdgeStyle;rounded=0;orthogonalLoop=1;jettySize=auto;html=1;" parent="1" source="Y6noLsDlf5R4uo8bpIC0-65" target="Y6noLsDlf5R4uo8bpIC0-59" edge="1">
          <mxGeometry relative="1" as="geometry" />
        </mxCell>
        <mxCell id="Y6noLsDlf5R4uo8bpIC0-68" style="edgeStyle=orthogonalEdgeStyle;rounded=0;orthogonalLoop=1;jettySize=auto;html=1;" parent="1" source="Y6noLsDlf5R4uo8bpIC0-65" target="Y6noLsDlf5R4uo8bpIC0-63" edge="1">
          <mxGeometry relative="1" as="geometry" />
        </mxCell>
        <mxCell id="Y6noLsDlf5R4uo8bpIC0-115" style="edgeStyle=orthogonalEdgeStyle;rounded=0;orthogonalLoop=1;jettySize=auto;html=1;" parent="1" source="Y6noLsDlf5R4uo8bpIC0-65" target="Y6noLsDlf5R4uo8bpIC0-114" edge="1">
          <mxGeometry relative="1" as="geometry" />
        </mxCell>
        <mxCell id="Y6noLsDlf5R4uo8bpIC0-122" style="edgeStyle=orthogonalEdgeStyle;rounded=0;orthogonalLoop=1;jettySize=auto;html=1;" parent="1" source="Y6noLsDlf5R4uo8bpIC0-65" target="Y6noLsDlf5R4uo8bpIC0-121" edge="1">
          <mxGeometry relative="1" as="geometry" />
        </mxCell>
        <mxCell id="Y6noLsDlf5R4uo8bpIC0-127" style="edgeStyle=orthogonalEdgeStyle;rounded=0;orthogonalLoop=1;jettySize=auto;html=1;" parent="1" source="Y6noLsDlf5R4uo8bpIC0-65" target="Y6noLsDlf5R4uo8bpIC0-125" edge="1">
          <mxGeometry relative="1" as="geometry" />
        </mxCell>
        <mxCell id="Y6noLsDlf5R4uo8bpIC0-65" value="Amazon EKS" style="sketch=0;outlineConnect=0;fontColor=#232F3E;gradientColor=none;strokeColor=#ffffff;fillColor=#232F3E;dashed=0;verticalLabelPosition=middle;verticalAlign=bottom;align=center;html=1;whiteSpace=wrap;fontSize=10;fontStyle=1;spacing=3;shape=mxgraph.aws4.productIcon;prIcon=mxgraph.aws4.eks;" parent="1" vertex="1">
          <mxGeometry x="-680" y="750" width="120" height="140" as="geometry" />
        </mxCell>
        <mxCell id="Y6noLsDlf5R4uo8bpIC0-73" style="edgeStyle=orthogonalEdgeStyle;rounded=0;orthogonalLoop=1;jettySize=auto;html=1;" parent="1" source="Y6noLsDlf5R4uo8bpIC0-71" target="Y6noLsDlf5R4uo8bpIC0-65" edge="1">
          <mxGeometry relative="1" as="geometry">
            <Array as="points">
              <mxPoint x="-206" y="650" />
              <mxPoint x="-300" y="650" />
              <mxPoint x="-300" y="830" />
            </Array>
          </mxGeometry>
        </mxCell>
        <mxCell id="Y6noLsDlf5R4uo8bpIC0-71" value="" style="image;sketch=0;aspect=fixed;html=1;points=[];align=center;fontSize=12;image=img/lib/mscae/Network_Security_Groups_Classic.svg;" parent="1" vertex="1">
          <mxGeometry x="-449" y="-230" width="88" height="118.91" as="geometry" />
        </mxCell>
        <mxCell id="Bfvj85vFazDPNNq3P2oq-3" style="edgeStyle=orthogonalEdgeStyle;rounded=0;orthogonalLoop=1;jettySize=auto;html=1;" parent="1" source="Y6noLsDlf5R4uo8bpIC0-81" target="Bfvj85vFazDPNNq3P2oq-1" edge="1">
          <mxGeometry relative="1" as="geometry" />
        </mxCell>
        <mxCell id="Bfvj85vFazDPNNq3P2oq-6" style="edgeStyle=orthogonalEdgeStyle;rounded=0;orthogonalLoop=1;jettySize=auto;html=1;" parent="1" source="Y6noLsDlf5R4uo8bpIC0-81" target="Bfvj85vFazDPNNq3P2oq-2" edge="1">
          <mxGeometry relative="1" as="geometry" />
        </mxCell>
        <mxCell id="Y6noLsDlf5R4uo8bpIC0-81" value="" style="verticalLabelPosition=bottom;html=1;verticalAlign=top;align=center;strokeColor=none;fillColor=#00BEF2;shape=mxgraph.azure.git_repository;" parent="1" vertex="1">
          <mxGeometry x="-1444.26" y="-620" width="120" height="100" as="geometry" />
        </mxCell>
        <mxCell id="Y6noLsDlf5R4uo8bpIC0-84" value="" style="image;aspect=fixed;html=1;points=[];align=center;fontSize=12;image=img/lib/azure2/containers/Container_Registries.svg;" parent="1" vertex="1">
          <mxGeometry x="-1470" y="170" width="111.47" height="100" as="geometry" />
        </mxCell>
        <mxCell id="Y6noLsDlf5R4uo8bpIC0-86" value="Git Lab" style="text;html=1;align=center;verticalAlign=middle;whiteSpace=wrap;rounded=0;fontSize=20;fontColor=#FF0000;" parent="1" vertex="1">
          <mxGeometry x="-1414.26" y="-660" width="60" height="30" as="geometry" />
        </mxCell>
        <mxCell id="Y6noLsDlf5R4uo8bpIC0-89" value="Git Lab Container Registery&amp;nbsp;&lt;div&gt;&lt;br&gt;&lt;/div&gt;" style="text;html=1;align=center;verticalAlign=middle;whiteSpace=wrap;rounded=0;fontSize=20;fontColor=#FF3333;" parent="1" vertex="1">
          <mxGeometry x="-1390" y="300" width="60" height="30" as="geometry" />
        </mxCell>
        <mxCell id="Y6noLsDlf5R4uo8bpIC0-114" value="" style="sketch=0;outlineConnect=0;fontColor=#232F3E;gradientColor=none;fillColor=#ED7100;strokeColor=none;dashed=0;verticalLabelPosition=bottom;verticalAlign=top;align=center;html=1;fontSize=12;fontStyle=0;aspect=fixed;pointerEvents=1;shape=mxgraph.aws4.auto_scaling2;" parent="1" vertex="1">
          <mxGeometry x="-670" y="1350" width="100" height="100" as="geometry" />
        </mxCell>
        <mxCell id="Y6noLsDlf5R4uo8bpIC0-121" value="" style="shape=image;verticalLabelPosition=bottom;labelBackgroundColor=default;verticalAlign=top;aspect=fixed;imageAspect=0;image=data:image/webp,UklGRmxFAABXRUJQVlA4WAoAAAAYAAAAHwMAEgIAQUxQSDEVAAABZ8AwAEC0Ud080M0yIgK4tBH9m6SPhxwFbdswzfjDbvcQRMQEaA5cMAAaal78xldbvU11k11p29xWjrqHOE62u4bSGSMvhd57iVAxGMM7kO7Ae8cTELIMcAmKlO5mToZYwykEqCKuiuz/7waw5uXaiP5DgiS5bTMHLjIIF0UJAIP/khxJchyJwHyg+ZPmeT/VXC0+tcToibyvyHpVZVIgWNGoWhnRfweOJMVNc4yX3SWWUA5wXmBb/X/JqaxVBdnT1doBBXssA3GPD1MJJOBwEQUDUR8mCu4hpgfToybdfY5gwNS6CqSgaq2n0tR/is2qMxLRf1mw7cZtcylB8iIXKLhv+Tf/f9acf+qpzz5b7eyzz557ytNPeeqjz1Yx22ZZ7ClPfPbTqqqibPsxf+488/I/7Q56om1Wc9zF3Uc/bVbdjHbgqZ/0s3DTStM/G9X8vKXM4x9tlIPdJpj6S/bciDEf/VSJdttkq5TEpwDjP1rpoe4Jz1m8xX6Soe4m9zmCO9X5SQv1FpijnQSJvbW9WSVKgd301F4Tn2O7tT1bBda5jzbhNpAjGx7MQd027TDG1H0gtiHdKUveF9uwboRyNUBsA7s5SPf4T+E2vLMY+V24/Q24l1C23g5OBbKBObc2aoWwzPSYWit1bjEWaqNAnI4uqbVSECbNx2PDMHRr0dqqL/Fr0TMNxYwQttjYEDkOqbVXTwGmtTZ0xi3p9oQ2l8LOb7OOqPnRWizcvCWPDYQ8Jm1WLDa/XTnC5rcs0PymBZrftHDzR2GS26QDIbukzQswfyBkTtq+kGr4kLR9OSV1OTJUQM44efukCnLEqXSohLwEqrSLsBqRKi1RORX+Vm0V5piWzFyDdhclVXocgidIMbeo4oOw9ZmSPRLmlFRGEEX3amz4RJOtZTKKi5mQakslE4oPhfkYqmbSuZ/lFGNwdnY4Y4/AYf+jJC/zuSKpZ1o2rRY5KjaN3oryEp9W9Salk6Po8GxyNB1scjQdbHI0HWxyNB2WTM5QOG6FuUwmR9R8idAl4hF4WLwLW9YcMSlpyhxBKenCXOZSUjfQIikpzRmUVYFShiJwCYYi8BCMROB0lDkQJwPfxJnzYBu2tGmZ1ByKxL08R0xqSjtOmayaDUXi4y8HzpDUVJ9q72BEZBVzKKbarwFA2tIuLFaWp+068JLzGFp7xJebxxVgvvvzMdyeii8rQGAvQXhnfyorwQqBtxxRxKl2QGj867pw839w4+q0//sK6w6Kfjcc2H//+R+OuDlzcc07GOozfhT0L07FYB2MgUncIfoXJ77ZLBrQuaRbNCtO7Mx7l9rR7tLrcP92njonka+BToP4XWRmcZfEleVVdBrFoqMFm7nHJH3b5SsWKdO6t/O0tKBNFBfeazCb04Yt3sLeuUQY86vo6C0MF3gtvKW12LOypbB/BEa3AQb5YJmppVDtihsl3mnce+RGs4+J/4MF/8XA6j8oWNaFIwJsE2/UEyuBxfCe8lf7FeAnDO8p30wfPny42a0AT3322XPWcLB5BbDGekPCHuHikXMDw6Zv8rxkabhbfQwNDoC45xQHy3AwyzPCwRZw9bmIVBSfiwc1UT2TSEVpLgNhr0wVLPATqSieCSSjJkpHErFHaV6yRLgF1COJrNQoRyKRHaAdCaWgbqQ1VApqnwrsDysD1bYkFFmEOYIis6ojvP0OS4b0qcDeMBOtwpJYMnQ9+0TGKpiFgslQ9ewTGVWwiEkmQ9WDJkN014MmQ1BfNmQ4AIr/ULUGTlTPPo9GpmpqPnNh06jmIQ2bRl3NPoLDVBE8FMATVbMdHfZV5Gw6UTksH6opl00oKmYjiqptQglV1rMBTUWVnhAjskcVqcI4pKir6KlhxAye+HVVxgEXdno036mPEzc9mJiuHGzOizac7KAQvBIX7GEWNlw3WmwsG4ZfzV6FpXl6uGyFmTPT8q7UGbxHdTMtLEE362bzyBIvfn6FnaWWFiwx2PkVdoqGS2ZQPZztaDo3vOC5zfzESFpinh+qh1rccPweDQ/J7w1VzwDzGC9I7zcYgUq/l57n3MeQSikZB1izMGMHSoVXN5DjaiWw4uZvplvar4JoYVkNdcptvmSo2UyRmlkvcwNr7GyUAKkLlKB0fmSbw0hbUG5sHxk1OpxwE1p4cxE4j5WSXyqGKTlKGrQ9UGruHOQcblW+UWLycLwYbwxukiFiwnTalodgEuXCCS1I48fEmTDFOGeMIDMoMZTXCltEaG84tRCaNgNlXKaUKwTRWx7waze1EMYym+G3kQFpTwztVpEZD8QG/gY4tQamG5znDE77aFCQbsZ/NCTbjai5rweE6WZMMRylhcp6QMmY4uoBOYZKOyB3MY1OhqSkWnJIs1Rz9osM17R7RkbetntGxrod1sZE4wMz48miHZjSA/WHtis8Wx7eLliSoWnT/i3YcswxtGy39jcSsBxDfzuBKb2A/ya1nWbIAd6VMbjyeXr5sqdzEGjx6TJ2LBuFfqRJPovL5dSDi/jpUjv6tUbPMo3kWXgZu6bDrGU2HNlU5G2rOQuwsnFuu5updevhMJN8HNkFwKzgl0aRWd/Y4NOEdKm/Z65EMHsFniquGIpy75DSY0WRu/rhAmBZ7EE0STQJGL5c6IcxaY57koYvk76Id25mAUdqQZ1EnQBi6YUxYMl7JiMtWadIqURqwkRPubJjpCYu6yRJ4C6LFddGD3G5TpIiAcOXczLyTZLcIC62J1mDFt+JMoELYGniFJ0kA02pRP6aJAspBV+MxAlmRScyyTFgjCQtOZcsJKilI8RlAR/l8JtuMpEoHwjAWMFdi27IDozBNqSIJE08aekJJyerE9LcEDPMbmSgucvUgkUaTVQ8WNb9kjkpgJEdOO6GlViw1QQXTN0JI8U3eDGSbjKzioSUZJOLqGSJoiCFL8eyoXEitRzOCTGEWXeRmRNYwojDPlboKKDJnCRXaBQxitS8xWtSa9WkECaPil0kvXNI6ZQLmZFlIhZeFJkoFIqYkBK1mBRZKNUUMZzFylPPKjLTemAL+bT7Dc64QpAn4Qrl00KZ0ktRnyx1CeIFd1m+KBH1yVLfSIwiBV8pJEUCRsEuZO8WeKu5RpxoiijJmasVidJe4HubkfYNOFEwGhPJJKQcQ0X5ZbrLOIEm258yhVx5u5PybnKmc9BGOwd1kb9NRYoYpatXPM8dqU+M2lSSZK2t/k9htqn/e4WZkdxlJ1pfJkkyifzTkXgI4/9XyDSMSi542NynDK/DwZ5SyVLcyTJ638qWtRTtUWoXldbu+hy7ZIkwkH8TvQwcHMo6Kse7YZ8y6tPOX1dEez21/HYSOYzyzAp7c0HHNELkdPVYnNVlJLAcW3T4aZ773I+9MHEMF+LoK2Tab9TDyvJBgDX3y06Pd7GHxvBkexzd7miGJmYvyp3aOqaWYurY+ox3gW07sIs5ous18qfMGi97sENJXve3PoNxnJcw2Sl3FAlToPaK5YubLttWHcwJgh8zbcjdaCNruAXycJinHfyJPBdjfdBH18upxVo+X0YG3Rei5JLA0wNXPFH8tu2IXdG/G1Upgz6ETm3awiy/aztpc2t1RK08ZqK5SNOe5ejhyvKbpbCyLJdXssgE6DihE8ZNdz1sZGe/ucIy0VknOhBZHjCFNg3VFgZK2avYWoJzVJsXfYh8GYbdWMuvULWTrE271StkoY34eFtsqHDBhmeh2hHivK6N3DJjRMZwCzQwL4/NlDNVnek8xDrgI9OgTOlOHblvgjNu2sQu5Gtna9sCD3glpExzNIte5L8COODiCzblNi3mUBfwKctn56JdmzYJAQt2phNbWm6WV8YubQG6iWQ1VwxmSz7hnNk77P/+858sNjdrVWE9a60addS+2Tpst2qB5NSlWuuw26qHpWIyV/PD1SxJZoNePRAiOrzKXeKOQgK1D9fGuvtwsV2Vik+H1/d6Jia57tVLA82rJHEPwRo7EHGGPp85u6ToER4/znPjimGyHYqYkBdMcMZMeuXgC9EHZxwUjID3GlfGFrV8jkWozCFhsMYmvjKIopOtEkB8ZR3qPe5xkIM6nqAaYZgx16+NO4sr+sb/Z2YdHoYV3jlDFAVVPMsdITCPBklR98b7pyOFC87tPuq75/A9KUw4H8b3ipaOI7pzNMxxQPfdzGK8D0CvEo8q3ebMERmv+7x+/Yt11LBD9t0UV/SE4lVcs0Dc5nHob84cPZh1IiNKGVfg3qv08Fbe5p3A21+acSB+p0Mq4goaJY7BpEJL4TPHCd5+69Y6zkFLTakjC31fYeaEY3Gb3dDTb3UcL0xCAqcMH586ZnhCsXnp5GStfiblOu8djs7o2ul8GclHpgVKxSP7josJZUr+DeYV6M4hXnm5dAm5OvdW5OoqkEaiHy/4ik5CH3/OZxwg9B2Ji+UUzsdgH8dOIGx4+Feck87dpgzVUicQdrHmkwRD//bQ5BIcI2mJUUGIrQTjEMtxJULFt1w6CUzITkuD6pJGIrjnSBYtwnvfkuIJp9fufrhGlfkCJMM/67Vby/EE7wv93G61Dq8smoI53zaDJUVz9MuBZ1+j/+ntUOmHYd4Z5jzG64utYGm7AcrrwkCzbma0NE5qJQ23giULmmjUeeLz18M1YGgqIzvvBivRQrIJBphaoTd/Jb/skDvool+wdrBfmdLHIRs51XkpzFFIN+EoAGesILruAczpXWQaOYb+ftogVah9YmEeWbybkacRbWhsHNBKwDFic5SCJF59uMMamP2Fljb6jEZlB21uMuJU0a0Rq7kZJ3DnjgchlkInvDQbFhVljFmOeKOZKamS2GfZrEa+/tEpr/50RkobGaNLK4U1wolJH8x5NkczP3+gc2SQinMxbylp9R3DhB2KgQvQrZSIc8ytcIb+JOY2L0ZgYiL0y5sqw4QKqYAkuFVbps0RrJY/6cPj7hQaYL1rmR/B+jLDhGOaiRnu1pjWcU3sNDBf+JMbyx2RvcNbonOwJAvoaXgDB+1Ue1GIOFybO17+4gJp8zALj2W9UkZdYcEuZmLcrSNGPkgoIk/8ScauO8Xog3rG8M0df75dhqp8y++pXECKeRPNfq1eAmnDfIkq+gVKzu7n0nM0zqVwCcjNFIw3H4wEqk5TLHOLQUXlTTiF3Bo8MIOiFJXYw2NhHYGmxQhLPB3GJzHJBKZmUc6MOKhmvqRv+U3vPsAQVYMRpSYSmfLaQ0KWyAUz//ac/cgvOlQMgRUlu4xc8Fii0vIEsWgsUev8wpdcCrQsIotUvm6gegcnSkm49TmSkE8kWmXvfMlcIiOCHgxhRc0LRgH3BcNKRLW+RMTp+7cheiuxoOAOKfwX1IiDpNgXdP5J5r0Ee/7tFqjQmUIdBzDmCT3RGSiJM7LSt5gWdDpQKelhpFRLGd06c4k6cd/BxdClFUjIsXeFhprm4epZrACgCBThxLvdZobBHGHKSMi3Ilgi7rkIQWlAz+WFkRfuizIinIhYY4r5KkWZePGY3tZgE0pEiD1WSn5oISZE+CcEFis4CdnfmCeMqp/Y2yOAL+nckNn1eb/AKhJTJiZ+lPDZAkKq32zkvNtvdiMwc0TnYqIv4dYMoQFNsytX/cpOTHQE3KpzCKGBM5V6cNxlBYlp34mJhsi4JEJk+YWmtv4dl+wILEa75Aj5cfs+iPy4/Zp/GO5OhYWc0Dm/HXODkvIf/BHMSX1J5PhpI2MI1rQusgkoC/5I/62H530p/tTD2AmKBXtrjdiijABshYb28rzIlO28Uyco5o5bC7t0IHg5xp4EtedN9Jw9+TqVEqhb94gdDDgxxJBdZH7hT3EJcULM2ziCl6VWaTkuTpQjVUHewqwn/qTDXwckKbRl5nsLAipjpuRTCz7pTyLLu0QzthBdt2gRCOsWKdEqA7PRQPkzZBCGso7UCgnSit+3OL+Q6DvWZYQo5VHmtE1EwQ2uRUXfcnaU7ViHQCnK1lm7z274lD6y7THIstNZgpjn4hMfoL2ySShYm0nIsbni7W2Fkjcw59bxBLFSTl1qrX91ROb0HXHUub/3TdEpdiCnjGBskLYdgNsEUekjNh+FoM0e3whtBGNsLyz47kPinLiIMT2PqoURgF8dmWiGHIM1qs3rPkPAeWbcq9dqzfPZ/b280BmCnSyZ8CF3dNQCszkp2uztfelom/sliU0SZ+7PFQh141C/2nHirOPQJyhlAJvhOdy+fYmHZdfxBTGN0wKLKJew2Tzx7j6zVOeJCNLD4qh5Gdn3Vy8orEyoU3kaApgvPLxP+WMSeiaOSsvIvvE6fURCXcrTkVDRw2H/cYhiS0YMucukqpSPLysS1Is8+1x2lJdDx65GUC+ZOGrK/tzP4ZdHJNS+PHHO4o3yNFG2AhEyqu2yUP8aA75c0cuPWDoG8Tzk5HAVcWoCwSs2kdE0f4czuiuALnfzEm7HT4IVxKnJObnyHGdktpTH0eTvrMfIvqenMjMVz6jnOmNl3D71O9tKef34lViOB+oO9l0s1Dw8p51byLpeLBwQ/61Aef4geW87gPqdnywPrQh19p7TTgUL/CDcmofT98dBgvsugPrih8VKGLGzl+/Xi7pSiMBDc4bavK1KQAjiXy2YMAb1l2AxtA7X2swGP041rmB6VaUYojg4bEEGdVUSQvPDdWHvvkE9AKoY1k3eBHCZvyOTyj/bQhLrPTgVE1Sbk2IM3ApUeQhRrdXutupVFUAubbbBZNL4MGhLual22P3Q67aqD8kbF8Sw2er2PnfbtUCrMhE0X69A1IZlK0jsAYbtlLIPgO3sxBkdsLihvYkOM+fX4+2QCtIJeoJ5S+7T3JES2RcbMp2ldkvy0EZlr5u+gzDAIJkZPsCdNXmOMZGV2zel8ow5BVo1/G/+ADk+F9w35W3IQMPvIfuThyGTcdfh/qhxCTcnXLXaQ9y4Cq1RpNU8xxnWw7ct6JqURaEm5C2he5MyN/AOE6zZqxXfkqRFumaNNbv7gDJRjuyJw1DpN9ZQttSBl6MAPFOHfIKZS4ccIXBiU2BPOBM7dBuU5TebGb7UirNhDjeTo3a9dXjlsPCWgQtzhZVxxiTW4a95R9krQ0nbVII3DGr6EhywRmd83jaw7YzPIW2ijH21hr9H2RITfXaJb4MKbaT12wND3H4R2JWGd5XS/wzlT4xQ+eHAULcD4rFSN967Ih2TO50h73Kc8ZZhbwfojw3WFH3b/AC+Odn+mw+20HgFi7nu/d337mXxCpZut1UL1L8OQWsdaK3+T2EwAFZQOCBSLwAA0A8BnQEqIAMTAj5tNpdJJD+iIiHRyWPwDYllbvv47YLNX0p/L/CroAZ7N+AF59Lf/U7VeM/Tv7b/G/uT7hFs/y395/V/KZoN9lflX+X/i/yo+bP+v/5/sz/YH/e9wX9UP95/ivyD+Mr9sfdj/gvQB/UP8n/2f9J7w3+4/cj3ef2X1AP6N/pP/f7ZH/E///uU/4f/wf//3Bv5n/k//R68P7g/Bp/WP+l+5vwMftD/+fYA/+XqAf9H//9gv1V/0n9q/Xj8Pftl4sfmPyT9newB7X83WQb8u/LfnH27f2HfP81tQj8l/qHgl7Qfbv9D6BftJ9F88Wah3+9gL+c/0D0x/5/h6fa/UA/jf91/Sj2Wv/H/U+ej88/1v7FfAH/Hv7B+tPtpetX9t////6vgR/Ub/8CfyY+Qy6CFuG58eh0TBF0nmmRC+t8NcZNwVBZFYuR1wauWrB+/PwYXQQtw3PkMughbjI3j5DLoIW4bnJwKIj+foJZrigbneQV9z0BQYlM1YUI83UaH9EC6PPVZPDxLg2y6CFuG58hl0ELcNz5DLoEZ+bqfN1G9hRSqVl4szN+N3a8+rrXCmo2JCEVw8In5XzlJe38xkZrHez0PYDrAuTHyGXQQtw3PkMughbhucXPagHhgoJ5XZITqp5zCC+39IuWs8dcFSjHxilGcr3yEKsPCcLDbLoIW4bnyGXQQtw3PkMlNfT+KPrJEwrbpahYZdZLmrB+EMWu5gf/LjgvLugv4XtVsGAKph/esv53GADfmTGfYBgiNW3L17vAODbLoIW4bnyGXQQtw3OVpxyJsPAI6KeztmnKsPBruRqBgh/79KCly7x6B/B1uYKJQXmFYFY4km8bF6w/FFGppNcoeFyY+Qy6CFuG58hl0EKx5YNJlT3zuW80hF1I6Hp/L/a0JsjeVyeCu2wGmVnJNv6Hhb34ZVyZbqaluMvHyGXQQtw3PkMughbhnm866d6bwgMkUwCiByM8njy+imK7sqx/LNi++vIW7h+nwCqu5TTr4I3PkMughbhufIZdBC3DQb6vvknJk3gwZEWXUXUzCNTOfyeybZ1/ARo3+BivbLMYdAi4VvdSmPCQMm/M6Y5yj0kL+rIXkriczUv2dBC3Dc+Qy6CFuG58hlzvZAvWPsPrdYJhmfxd4aOT7/VYy0xaFVQb7uMDlPUVTG7FJetOADKFS5nkSe5psOUKhY4wUHVZK5og3MTHtl0ELcNz5DLoIW4bnx5RIvPEZPBGbKMJ0PatH3tJil+0pKG0vdbuwn2T78bP72iD+nW/vXC+BSxabcTfgYJ0bo5UYwzWOZ9ai/OXj5DLoIW4bnyGXQQtnrwVpAtFjhUhUZvtUjXIeCGOy0G2l0JqYVMbi6X1WZ+SADT5kEj6ffggAZ3PwNbBMIdnlF9v4J1Q1pGGRrqy1kks4g5MmrPkMughbhufIZdBC3Dc5Fg+yUeIOObqDYMiKSyDf1TGmhOsldN6WIoklhmY5cuuKdU0gGCPXqRuiHAYd7Efnvd3wnDWwMySiA4NsughbhufIZdBC3AMspSBySv2wDg+Nq3WDzjcKu/6UMCVJuf92D2SglTXPiOKyK8HEW/7vAODbLoIW4bnyGXQQtw3Pe6fQqCT5NCI1UU5NuIcyWrUo1eCY9anUM1OHksp6MewHrh+FzyzgfG0I0VOOhbgx+5m7qLjkMughbhufIZdBC3Dc+Qy6BWEuYFjieRi/xRBmKNkrmBNS8h8xCwnwPf25+AqDrpdKbhGpqb4MZaELcNz5DLoIW4bnyGXQQtw3Pe6fYb96QhrcNuF/DFhFf/fI/AxB7LjDLx8hl0ELcNz5DLoIW4bnyGSmuQo2tDkhO4jwv++RiwUjXwFasRsoj5DLoIW4bnyGXQQtw3PkMud9wVl+8B1y9wyriEhJrPkMughbhufIZdBC3Dc+Qy6BIkAA7d1IqQfRzljjjtnIjx8hl0ELcNz5DLoIW4bnyGXQQtlE1YI9wsiX11I5pOqf6KXDc+Qy6CFuG58hl0ELcNz5DJTXWiSf22yOxXBmBeTZj/UYuoQmetSOD0k56kgH1eox4+Qy6CFuG58hl0ELcNz5DLngKi8gU66h/mnAWyrs4pDKEAtzOYb9gMczA9PUlEBwbZdBC3Dc+Qy6CFuG58eSETrZbKy/Iry1qTOs9IJkbx8hl0ELcNz5DLoIW4bnJsJOpoQXkrzsTwla1IK7AiTR7tX8Zu4dUdxk2I3KypyNuA783cBv1atjZHVYSVaggXwFyuEWEzBFM8ELcNz5DLoIW4bnyGSmuSD4b27VLWBEtphzYg8fXaPWZNApjt7o4cm72j/CggTEMPSGFF7SbQCNDVBKNO/qNDmcrx8hl0ELcNz5DLoIWy+G6rTwcl67pNRmMNQHBTD8jRF/bu+zefKj7GXM99keCldvMVKIqxaKJOn3F8/wFMNMRKs0ITVnyGXQQtw3PkMughXDao6hpmswhy3uc+IqUt2dTM/6slMazJn38fYT3SJYDfC8rBubWbX+cI4aBkgcG2XQQtw3PkMughWjnNaqizvkys9K9tP1+O4DKZSKw5DySNt90KAqf/f6CN2gnAzbXj9Udn7DyHBZYwypp9/FClDLoIW4bnyGXQQtw3BQGNhOwgHhkHjSMoM2hqCmrdpquJhM96nLFU8aGGjDtnIIfq0NKCq4mMnlsFPrmyJ919+FyY+Qy6CFuG58hl0Ct7xJWGjB/4R+z3UZir18PPqmYgtnz1n/fqpawT6tHk/BNrkH9bypyPprd9oaKM3Njhl4+Qy6CFuG58hl0ELcNz48vunLyJlEteEQp7CaZaQ0A4NsughbhufIZdBC3Dc+Qy6CFuA/5+kfHfEwY7XtsW1X7DBrPkMughbhufIZdBC3Dc+Qy6CFuG4MP0k7DDLx8hl0ELcNziAA/rRXlSPBsZv0E/Sw9tIB21da9KOKHV+GV4cq819vTZQqx3czPgzWFrXPBWzscbsFyI4Q7Fb1m0hFWuk1eYtQeeyH9pZCLxJHUHaHsAeMWsPTykl7cKdOobu7e5NkE1F6u4w06J0KjGdopaZE3poo6WBBNAqCA08/Ij0DpyrqGACZrk7TqVqLa2uEn8ttIa+CabEF+BZnvxw2PXwh+uVkx766smVGcdCqwYC7CiYIJDSshNW7PWqTx3zM1i6+jE4wCNT0AWGZEMcEHRI20uH/InIV2pSavmCCX8nwy6yAIJFHrEeHK0mHduA3iYSF0iWm1SV5dDv5ChGFxOL7es7lac1PiHpU4Zsj6zVrJAjMMENvsMLJKgtmpiy5HDKJq2i/ApNgQ4FGvkgXZJMOKOL3SQ2iDrJLCWNd8UVzthNfh/aMe1J8xpmUoByEEkJVM9LFx8vQClRbZE1ffCPDlpp/+4NlFekUAwAH+xaNW/991EgQxWphmyVweQgMZnoxbEVM2mqOXhzTVsBDCzh3DRcvMlNpca8zrgPoUkrBERc0IB8wAAArRaYwvCocsSyMBqCMFpMF5gehCey1O2Ybvb/X2KWVpzU8rqBLhRIokpwyA14YGVX/2XiLu5GWKN09o37tM62iFzyHJ3GlwG5t5XZXG2GZY5RCD1fDgx7hkATTPInr4iibe3iKHfH4RrNPZs64aZMrGMoJj00xXZ/90YmksW+7zvn0RRuaGRJtOX1/LEZbjhFuYKse74+sc3F8VEIWz9ojMN87j1C4HsHxIQAAHuGnaZlPVVevdZ6YvBkWix9gOCVLBlTUSUyuBl2YScvK79fbnQDyc7cbop8cihT9/I5IHoPxXBpTeuyOJDOerelHfsjfWQLLbPalTpRMglbGrqp+7J0wHHb4bW/AsHQ4fK+cNKwb3RWWitTzHutwPybRFU/jwhkxiFcK3U9rSNNhdiby4qRPncZpHIV/OZYRHXeKK0GDn9eDW45xFCSGrdAAgMHA3xa1LUSl907vY1SCveSPQuB+jFIXmc0n8rZjzL3JnLp543Kcs5aN3suh+L48al2UAAOdtagQB1zzAKzTO7WoEcb0Xfm/jZ3G+RjR8KDkSsxPa6C0U5KyvIcv/0wkVYFUBqEQFEvRtQb8NkmRMqCiLtNetjl+fhNhkZ+AqWbso3/hequspQDSa3OBUdAWPTcKixcHiN6nXlrmmsLtgM+cMqIwbjDAN9I0rOdlcX7SatYTcMXtr4Uyl3SjB0bExE2WRxgAsqWy7xaS65dW4j83I9k6cheNRMdrLUEGHHfR7xuD58bN2XkLZY9P8iMgTqmkz7WZiHw4N1pVUr2Z4eTX9HKP60sdHYdXzFCTkDsRS4XNaTCoiWYobpfW8c+ASRyL6di0J0Dh6Vmu+4jkaU+5ck1IBmJWjiDjC+PX//1M0uPgJVzfrJXCwevsTKuY6LvbOmbsWiO9yHKelUmKJaLMcsAA38TZesay1FLMgbQIcQOfTwcl2VrT4JdfnzVk7sFR+bb+6E+H7kCAtyOPa92OIjggn0bD3utwjt9L9lHvCMUAJRnra7voAAHz1ZKK9nclXX4VCwbgwcZqa1fEDY7pmjmw3yxV38a0NW0HEalWl0lWJJvKOJYrye8VEWbYJgpdtia8U1sEvfBgd9wZQJEMrEce+eY7A+lJIr/PqCoYE+IGZep962HyVAiz9XjGfCJIa5zLnytfdxp/J7RP5SbFKhQNOucWJ3bkMv8dgyeks79qt9u1OoOlQJRsTy2GZOSVyUAjON+f+gzetQ5FFABqPQkH6nKewcte3qHR+9gfCVo8MXjIANxx8DWRWXqPOg0TTmupTakNNUx7cUSMyflzj0tFFkVKWPkW/miq+yfpg7rk0fcgycGGjhXJVWNiADmGKfw2cNBqutDnxVXsAFfapAzSSVY6lvp6ya3mg3N98ZKuyKhQfkGjMw0D/nRhF5GL5Yfbx9sAFzAbFhD0LIzIzJmkcP2IrQjMeE4cMbO2azk6jVPU6a5XMBO3C3CwdFIw4poHTT7GphOte9FGBpq4LY6NQPs2oyYAOz/h3PqYy+nArE7jIF4FXS1QCPQx5CnBARBch8YmyZPFq3ZjOYXgq65xfFfdqk4VKdUTW9a0y7QGP+DTbk+e1+yDza0hIloODv2RdlxgG2M9+5W7JfYWO8KYOA5uXAXoGu7celfrsuAxtL0RfBvJw/CgqRuFp59VfcifY8+JBd4D98ZndRsNSXgITsGx0kP71a1ONC6Y9Jwq6STLgsK1YJxBvNudragOkpQMDHdInwLTzaloIB9+EL5UMpBY5Rh2OGoAGnhqy9yKrmVERINh9pRtSobB7mMgQNotDhP09l4rH8dNAC1EcpV4KSXnUFsRAcVUTREQx4sGTko6zNKAZUIKXdQBG4i+T82T9AdGAWhhyhDfZWXLN+AE05HYxpRVSI/D+r9P3rZtLUIogjiEap+JRzVOQEYR8fAxO+ZYvl1puqAoa4xl5EFSZgHi1/josuJ+i70Fnvo7/dOuJlAZveWkZHcGLPNwlNqTG/sZhBJ/KyVNKakDWnuATJZgZD8csFKrLjwQGHRqlAAI1vCGVZcSrVvU+JlElNQF6HAG3eeoCl7/bxkAfMJXvRVpOqhnVUdzYWnraFarC5LzelOY7t7sklGpteGX5IzoYkDdSrk4ZoBFylfVCWNCfK4+8PD2NUmjTxUIFc2db6CeK+q8m/1/GQb7659ovHCTaj9wS/sftcgzWNrVeKFWhMDvRWTVWKi5U1CMGoqUBy9kvqFUgCn4bDoygl5vLxn80zVqn0h/CC5pYyVNB23wwqge19kmcPQ6VRmTwU4NEXrx5lnQ2zp+RKeJ0Q3XWhDor57/jTgLhQ17+80w729ITpa4uPXQLQC8uNYJZucnJyqGN2ZDkpZ0OlqZecMGKTVVptfFE/sSdKxkUvXc9roIA8s2PcckDhZav9u2usDKtSRnj87mQgdxOH3XuTruF6h1ETttxaT3bGFf3PdKFAZnd8KjvLtXBCM86WMS+cEzREH7r7ydamMdDPldL7NdumQXT9uXUSMf/vIdUozS0afdkt1f90GP3tgrG2Ftts61gF9jPFKSN232Xw2VoZ3OuTBFY/ydzV7SvTImxXwO3cRTmaLUqe0hY5aX1XbeiR9rHDLx5Aau9lwY4tp6PQAC9LJfHFsf7R8cWSiAIuLj4oQHp9GrylqNj5ke6rkHZo5Af8e72z1Z2spJavsZLiGeY/rB92m16OKaV7yawgfdrnXPcI5jBDkoUA6zykyq/Los16BnYuyjLYd58L3fkT0P09hh/7CTX1Qd1fbOUlgd2JXJKt8tu9XOSOQMn3l07po97YY0fSNd+vZZi3e2HOPOFlg67ZqTzX8Nn72QxzQ5DceDDvibhfPgzNnCYzzRGCXVUQhgfyrgziKIiURA94NxJ/VxHLeedRVjEofUMtoZHOBpTe8WiFT/bkU8nMqLExwDbHAbeqdwZFLUyj3xiQN/9vQkqgmOlYb+W8Ll0RQFOUPECOgqTYrh09/1tbNrHJjTOR3kJsa5qRgDsHLi/wUsnwOJfk9SM5dFKojykTE7K/qvppLXPjAPfDDr+AGOTWSf9FFn4M+QVr6AcqCxEe5Po644iLPjfI74kCi1MKDeOoiVRBPrZmj8wxdtLIoZKhzGyauqPp12zef+g46R1N+RYX6f9AU9FVbfUF4MxhgZTvdarv9y2CrlEQHT46Ufuy9OOzKc9Id1f7Znp6P7bQe95XMVs3KQOohyW3kaKXD/fDqmsakmF8wiKvy28CgFwAAYEE0E1yaDQlQaileigSPMUmYAC1O4GhmO5DOQuX5LyPiOZmShyPlSs+gAoPg9sG9P7LfDV8IyEBUDixhXrYtFwVcjWlBABF2VLRde2X1o/+vGm11da578MI6S8T8eM5JZingpsslJeNSRZnjM9hE3G8gjDXtWypxfXxkwUV00jxX5MCXVw2MpWkrZv4F8DDpVo2Q+4SPl1YbdM8pTBvG7uPviiaB7lhSgZY1Q4km1H0JKDqc8bhhZ3jHPZEjUTuQ5BSNEhpSNCtXvx+QLB9EwRLOA0CyKTfbIe9vlhy4ITjMDdv2EIep1P+O4nGb9c2UaUgN/AyQL527dnZLLg1DDjeSeBtiukyIqyEpi5HCxuiirRibTCtNw5rcoiKwwPOSCjLjcj/tlMVXIYyNSzrd/mgRsudJG5Ci0mRr0K69nicaVuFcGEPX8y7cZKkHI7YmNehKHSYhbIxaSMCoJIjxFGzasw8X5AABN0+ukT9oWROqpAgXc26Zadm/bEIz11qGO2+KeDxToeN6mbGaXUKqa7Gs5zfPelX0UlJHW38YjBHMD74Lx3tJnwWRJ4uWdDSpHbLcsdb8ZJroetLKXa2T8FmOt9sVWYsiAIR8IWqXGvXQ25uX5+qjfA9sjr8xzfcCeydHpc3rmqswFNiofW37lTn1P4daJw5hMBRq5EYi269i4EQQYwtb5w1x28rgn0/rnJd4v52shi9WidyTDoYkEHFo8Xic/zs5vKBjaNdEgXg1lbNX+clQt5FUL3HOboUK1qmWvtTU0+6q0l7L8mUJIVGVmkmv+OkNpjd0k3ET4YK8avkqvFZNtEJ0NwUUiHCNKLkes9FhckJVgHXpRhGn0ayL318AZONYO5h1ENnCjZuzRnwIxMOXBL/CMSVX3T78o6cu+lK8kG6Un2he3SOEWFCKVyQ/faL5EJO+MVkFMbmW4TCkxdWAITKp2nNEWPGhRkywLnzPLZWLP7GXMr2TLPEp55mq/xqxxOhMJwVcNdnaUenKRjcWZfb5xgwbTnBgnb/reGolW1H2ofcj0edp3wrCQ6sB4qYLSrvgPi2ZQamHVcbqKKUbJNClRpx/5SqA5RsplO8o3UiBbd6E78cz/HBvsdzYNQhZwo9zijkQ+5B9xK0Tax+7oGVA6H0xoUtmREv3qTVOiLM6Ys72SfQEAJ2ZVHnu0BVCfJEsJSG2v3U+AdfnA6RLue8Q5pW+yqu8T0+Cq4cDFQGy+yKAgACu1kltKY7nybQMVkbQcU9vQE/RRKsgClIJULTx2bdwe3BC55sQ0fpABIf9mfyzHW1N3BVwsAsc4zN6bv0oYLtkUwO1fEnel1lwYYc+3UohldEfkU7zB8hMdsNDAbpc8nJB+ioxtOfg8OzpOhMeqHiI/giPjr4/wVl42Oe7hgYxP8rGrx0Mmb2lKs4p30SmGrskKcvHYA6dtAAExrz2X+/4BjYWUBWYe8WgWzpHi1ktZZD8kNVUqmo0YHB1H7NWRCR5nRgTOpi8ojgF4r3rsr+pnbs0GnfbRy1hMnNDwB9rB52oUUYW/T2+b+Nr9m0roM0K5+sAFXXyLQHSiLgQoC7Re5MABiZxfkIkdoGpHN52Qo1iEemPpDUFl6CuuXnh1S33c5lRhKRijAVE9pf6TVhIdANeZDuaFKq1iz1C8Nljm/INYoWNjW6P8wXZT74L7R4K84GyIkYUW3N4B4Ov4pLvgUZz75eD1SBuzHg+sytx2gihFFVknei1e2hv7z//Kd6zA3m4B64iiacxSRZrRfap/UG882B9pcXH7SRNTuFbew+ndA042+7Bw+sIfcqyoPZrLILJ4TwATcslc45f9RI7XXB9j2TPSDaqgO1aGvnAjkPbHoZMT6BFekPU6Jxh8XJDW29sn5v/78O9f4qj7HxUU5r9K4yqqU2v7yFfq1qbNV8paCyUC5h+JzVioucet9Ndxq5acWgIKADfwXPvCLzo/hfXMkX8m5D2M6Jzxw0uTxuT4y163wl/7jZq4pALN6/i27l5ExXm+Q6o96FsD856iIkAABLDhgQUw6h8T37GWc/LgHkk8hFRPazJnWBUhZ0Qw+wqMnWrt3c7r6kZk3clxvAED4ubTjoScU4GM+nAY2ZxsEzRmrJH2GhP/MNtG6SXcbIznAnsK1/viUaRGXMOvefYBjhDTnJU5h5sDlGIMkbWT+H18awJw4Db6fvQuNvRcozcoDiiPugcgwWj1nMJVdjdtsi23gT0YrDk8GpMP7nZIg3pYEjCzgbQtoBrMWVaGSjTjAw+4fvB8yXI2fgPFGO5I0gv3I01iXoSTfIVxeqmJaZbC8nmGVp2yflPe8OvWuoyf/hVWO0VorhQJJeRypNfM8GH2Bz2um157TgUfYLl3EWyblVwo4m71J1f6nPu9jtCNNF6cX/TphmZ31/+EPIaHrScdue4scRBqA1mDzE5OvO3VmjAisETEpAiCXMncuyyKT5siT4Et5F7htgcoFn5dpCYBEuBUgcC1sZ3CikMX1IPehQ4cq+IpaeutfVuWO8ERlNKvDMORiwh9PZcqOk8s8pFKQE8XbEBjZccYnfW9bS78xyHAidB0B3a6d21Ljh4AAACtIFNho7++Ev3RzVY4kROOLPmfj3TrHGMUS8lZJdcm0pCQaj/otMo2jeB+LzrTYiriIimS39peX2aFhqvkR9xaoaW7700zRwsBKe6AmJnwEXq5pEGAUYuZ2GdpRK4REZzFlaYQNDjX0vvYCYfo/Y9BtQo6F05L2zE9im7xng6UxItmTtUROgWDuPTi/9P4wdz877veAYEJkG+P+QoMkcadZxU+bVYZabumEYMJ+ErIzNYYVjyMasOdIzVenmZWgBLwMCopVzrTQBalPuGi5TSSEir/oKgRujgL6BEDL+c2YISj+2LO/NjE31tKben0qDEvOEzXLP7wPENRAmtswka+1nqDIZTcnXkp5BHTRWEYtCngpV/Avx0Rqoxos0FlZwnUNjlmiQjOBqcFGtVQxHGOpJHzGyz0QpSNJC+7q9GZQn7KAV4uprsICG9CoTI/4cpm/GLnfRHi32P/QOz5pD3vQAAJLnPWOZi/tbuV7TFKvaljuM0ndIKcojsGxm91ig1HXCVPAatW0poACZCwmFkkQTtpN9t77uWG78WLrS1hi7Pa6Wqk2geZD9fSefluCJYAUD2S2sh0Vc9F6OvdehTZxcRHEzYUqXOrBg49qfJRxB+Y8qLoKDKTuvFyymlYq10gffuOvXsZlmnDfVjuQEbwrY4SyKff8B2fTvGAAADhWu+9VDU1F+xO/f+JUTrqW71CLZewQMukHK9JTk0ttc5kT8OosVhm3NLPiNxh26ZrCYw5nnBlkIVkaynSa2+vT1Af+Vm4n56nXFNmA9Vzrc5/KKQvW4rw2KSyf+DdL6ooVxnTcdYKZNmgaxPTiU2MEXaxggwO9soG/mybGt0g7XCyx/wqnuWyEWg//SFh563a2VQ6plCe/cCnFezMzf/zOthtW6ZeOka+fpJLX2++36yLMdu+Zvq8IzG7u0at+otKMYSMhvrMuqaF4+gXb+SEMQr9AAAB8H/8Mw34su1o4hX+VsipMHl08Mr5JtEzCu6IHhSTLBGcBBRFShALKqiGNAIXmfmxf+EI3nrqyekCGA1WYFR/7k1+Sdb2q14AAAo7bfPAzkvwu/rUrSX76+joueiGYB0ioheI4woTnUJkSYUmFDbL3UfPyOeN7MAwoPGNy026BPE1EXFIgdqnrdSByzcQUL4WUUqRszteH3VCwdtLUDhSq4vq5jCjE8hi+MiUp3ektwgiwKinmg3+7YZuLGHraGwAAAAYWhvabZ7TIcHgKesEWsDQFxxzBj941Rncijwx3pPKI4qHdTqKpBPnN4DYymonQdIJkLDreI2xF5GIv+98h0sJSs9kjAeH5TtkX3X+i6qv64jFNbww7d0uRNNvYMgaesR9hF23sRfU3jVXsiew6DamW3bavVFYuYU9NQbEqO2O1u/p5r2YQyjuJT9BkZGIX/Zemlarvfy15jcp+yOgwNi3ElXB8bZcd0gAACKOBsr7Bk/48qBfb/697Fj5fGH9Qktdz1AmZ2d7uwqpN2uILfOB7jbsFviJs58S3/uZW4dSg1wjx46A50sNQjo5cysxrJRczju8FImHmMaeTzAQB+WkHMFhr0r1hjoHfL9RAYIFDg9/rvfTLpo7YVRhhbRdPH+LBVQj7P+T4H5SkLq/7dx8cBU+7PYl9otVOdSycnL/v33yAvgGQ8sKL8KvjJb5rxSm9UqvfmgtJ78dDXww5aoS+TkNhDdISBop0jIgzPBUatGKflPvnrxWgO8GN6xnFylKje16h5L9WR5vKotaxP1V7n2oeGitNGhWk3RB0KcqqfcYmBdHXerJ9VkpEdNiUmdfXFR55wGLFl368pGpYKjSt0kgdm8GBBFG/lKbErsyWd8ScMSRuT18ez+6KTb9vwsEhuwdHgqCWnT8qjgo93NmIgE1PNXL83ZKhKdi3BH8TanRIILt5RVkQmraC4I68zrBzAl2zYthSzSMQ51WQGhJeXtugIpXo+dQvzZ0D+zD1oNmlzR3XbcVtDTTaaCikYcbYi/ZHWWqzoUscoLVgAAQJAa/HoqU+EIfxnKvwSofK1XV1ovtpyyKogOXtbQpBZAPzy9eq/KXQZQdQ7gnDZGHXq8uimEAwHwwv7Cy3CFfczgdc11f8igmvP+zQqR1mvC+X9o0DPgHbuA2ymWgEk/0KRedErvyOW//G2QGCbtEAQmsBrFvE2F+jOcm8Qq+geDye9jgAsRUZbgNXpcd9uYd0azxmgLDYpXHMxUdpPmDOX1t1moNT6t+h/XWp8p+T0k8jgYEz+UafKnYZ9Fn8CdbuBzdgsrHlmiTgbBs/X2qer2KGXFbPUQP+A659t7gZf5paZUvmxOkDUnOheA2esT7JAUaHn9d+eIq9sBVId5D5pVfX15w8qpCAe9k6J/t4B0J2oykm3wvRf8TQf4DWEqmiHKBgl0apvazpAHHr1XXj1OBm1b+Ip/TvagHT7B9FD50sv3kQOK+nsf/rQcIQfWSJANCYD98uQdM3rz34KY9/0a2OMAAc4J5p9ky+pRh/oHNthsr6SJFJoCAZUGbuqoBHPUgLYWLSKetA7HB/9877BBUMd7t0DT68uDzhaOtwlb0jf6GbiMlgrKGnZxs5DOaT9fcvMO+wx8J10ThfgADfR3m+v3rMIG6qxbv0hfCsdLXGPaSCFdsVp06cNJ9sOpMo3uoyMqq0IYMlOnk0Hqa3u/zrmpCYyHM2oDaJIGfl+dZ8NYXD9XJtJHzDEiWyBjOkNJgwTicSGLrAUPvLt/bqp21ijVjmhfRlVqGiU7Iyd4RaWyi60vCwDDaNhzpxm6bdA5hL8mjLyvswaeXd8Vn/YqQGJ/hkEUdEvMu020+34qceHl6wkQ8mEMMmmUHvByG5Uoo1qFiPasjnyWEgR6e1qLvdaPzTDKEpXn2qGVR/+foiPjRYRhQWWLY6by0BlTVwU5/EOgKP8odDnRI4rc0CkoOSiZlmXPDPx40rNL5sSAJvmrsDkkgnXJwZm1S/vvVSYeCdfSsvKzmETQtc9j3lcqpgSdH4UWiQASJ4AumpvtxeIjdhfMmbm87SembgNtgnJkLv0hEo1NYGkKZsvqfm5mn7HvHjHgF11JrVj4QBeU++9zAUw7TRLz442vhx+/UEyMz3d+cAD4ilwmArQq8ASayrQF4dQtq99tvri1XdkUYeXmPDNA/DHsEABfJoaRKLUit2XCtCwDDaa0ZXwWfN3kbv9/8XvH+hYSTMRchXxf8j19Hp6jGrnlB9P/xpXZsJwNcfXFBZpAe5MpSz4Ijzb76SOWCKBpH7tCkwukN72UYwqcAgDBN38LGOr95OjzwlGmw43wkdxkugV02Y9LtLyZNvn2YWnFfYecnn5w5+BDKUHO26YWCPv66e6dyUs/MjmNgXuwyCqdiUvqp/qtmevxxCmKwFtGN1coYzJF0NvYbXOKSgFaBXKLETXFvNW++ZbmMAfpy9EiF1M2/nQi+Vc+xJiO61w4WjuxmBM4iUh7LVvpl01xykz90mG9OVmV6WrSIFv5XbWAVWwljGlytMjZoGRbkUq8mTUMjxdq+E8kRO9E7uBAZvPluLblQMjIyx0rRVXgN68zbEe20itiiGI1B++r0o0p29kVI8+X6o76jqcApd6FsNAr5cxAF0OFrO9qJeO6crWBoGZnAPJAwwsKH+hXzCehgTTIQFjdcE4yIynrUximnLwkIezKPCDXPa4wtipoSNmCOqwwiiSLqeWfCsNDelB2chvRUYuMdkAcH+05Fr9zSazon1L5evc2Kh09yNxdDFz/AvyL4ZWR52oatIY9MmNzhU7Pf/2vqQkbM7csLXuDQR/70HHrd4U6lV7JZiIeVXAXJgiJH/xB9xtOFvlhcGzBSAAYQhOBwjypDi7Gp7FHprhFsDlZ/u9Je9ShlfcWLDDc04NrcYVGEC6rRz0DgzYb/SF7VPg//943/+8BonnGMik3EA7wh+qFKzqsE4FDWmxWj69iFWSoyI6zE7DdnuiwNrurdXUkoGzUzNY/MNNRiCiy5j92VO0jwNOqYEw1Hrzx7ydMpcEDwZrn05K/ETXx7wua9dQk8HLaag0SmOlwN5ErTVaJPQV0Brv3ENXx8Z4KGZ1gavQnCyMDCd5k9HQFbCyd0CgW7FD7glAK8gZnBgIo46YPEoVKs/urWWWT454KcBKSsJ6RLo6t2+Wy56IG2Of0Pkr3xh4S9BzzOBeNIGwAJP3fP7FsYggDnYvLr/6gwCV5863XSw/j/BEqyqGusYvhYw0aO/L8RZshMKUtjb8Kfra3RQhvlcr+O6g8cJUh03CJXND/7pTS9DwUlIId3Vt4lvN7gCIRCrnb4VZNvNHZdU4G8XAvvx9zKXKltlChPfVqRiEDVhX2be96xt0pJWtSsYMj71bSNu7HxYPLnFYWLLY1RDbf+dUOAK2PsIzbx8AAErZBVYospYvVUdGa3OxVnxJQOqwRVDVq+rISPUYeWwPCOgnYcv+QW7/cRtevBZx+ZImTzsEgAJQXPMRuqQ+OeqHFszwi0WRLohJLxYtr7PSsUkKLMWC/EmTiAzkaomcKxOw61ey7dRF4Rox581Bbitf/4lOp9jVaC7Srv9pCbdBO9c+raPkToNrEhRLm4sSFI7PXKiYSsuRMFyty8RYvcsOqDm0vnP1nL2MiLfV/c6fflC5shg+eCpGJYfVNLkr0tyRDJjlMArevASXrjAojphabCxmzxm7XTZBVZjSceLcswcCAmn+CXbT3hYfEGn74YDjdh+PIU7OYoaTZzdxdOxK3vblOYST4RCdl02qAu1qdpXUv82JFmnHFh06GbMULkUW7/Hbndv3JUht6eyboo4ujP/KnpujW0qUAe5zQi3IQAthuZXDryOP8+XuZYnUoZAIAADukbhuHquzkyMJSQrEeM93dFFsIUUBAbutIEntJNxK6HkbcHoqOLpxkjhpxqjYQATkCZpsWUcbM58LdxWzAKjklYNkzM21EGGIaO+2ABaYneuIPDtBZjTaJAPcoeYxDlr7MiAWEMx1SgaP3kGWQBg10MPWykyFnSDEd5IU7r5eR0ribA3ieekEqVRHiRwUvYyIt9YLSNYuyhf5P3Jl4VEjUD/lAqudbodxe5Yc9MDUZ6zE4qXboN6QjXyhOKFTV23sNjzA/jI0qHY/kRhFUgbX92DBKAbxMRqOpUSFxVsaJcEkceigZBQjSX1P5SrSwgw9SUHH3EA1XQVcTlRN4sgNBXWmHhd2V2/Xyt2addkkMbrts5nSrcE1urXqSse+ya1WYfnSS9jzXA0SN1XYuMNKuK2CyzusYUn/wrREPK2QyJSEWQHfIhPNgbGdUYCuZTJw2nm/FcBLxtqg5OFj5W3nq1y14X8JL/LhGDPIqdKTlwviWQo2s6fZ2QvGknzXwZNWWYUdHxM1cOZWbFKNPT5XdRTajpYYFZL0iXPU8f7NnF3PH+7Q+4rbmQJCBPstfnAj2Kv3HCrFaQJ8F7/hD7L0fhgRV5IOps4m3Uiom3LxcxqfIAANoZZufqj5TVfbBmXih6tUK0/cmpcD8QPySq8L4GzGGRmG6sCaDKcT1H2dSbyhpo9XSAiGBVVmpZ4Jvf4VYq3BxbG7p9jinipbWt7ba1Ts1YtV6QGUbfkoAfWVMahqOAX2fZEBxKLq5ykoBHl3Tl6ha0Dtek2sFKuWqmvOn/MC/C/goZ0HDFlIvP4RvxLz/cXOAWfHmpFxQx39gXGi+27ZWNL1Db4Z9OLbaOBeuVLmt6qY+7In0icV+8WBq3PvfxK/eLA1TOp6ZY8T2c2uYJ5JbXRk6+zuluXcys71FVlhNf7T2k9HAjyNl2W533ixw3F14k8BdVlBVM2Y+0hVPR7qBUNzq529jq9/5XSZbErwaKoI6FKmrQJGKNihOAlfZjXQbw5p/OaIplv4uJtnpGDirHcQ56U77jlsLOxJy8KvgS2CaneJyXP8s5OolkPW/SLZlOfC4lQlQ26132bmfTW/5YSU9YxzD/8QT4rvBkq6DSb3lT0APy4wws4RHAC0c93FvE52iaHWxXIDhOIYBD+LJAbg4l/+Wv5Ocotywkp6mnYYgy4vePl8YaMEG0XiMVNvX2YCvvq3szvnKbKr6h3U0IPIhZBadkwZDbfiGymj1lbySwP2IJYymfcP6gnNxtLgkEe1KKMkrWgVyixErOiIGpDnSePMhy8b+pcH9IESGYggwh1Vp6QW0SEKlNpDLbzAAASr1GEU6OzF2/UAC67K7aNi+LCuWilye8e5QBhyGIMoO2sc/zWTNArrn03JfxFvZsIUDAGHOQ2bSFWr550ntj0pqlweu2KCvUBGOtViJxMcvyp6mIrv3g0+NHU2eBbQcYm+IYoMzYfv8ltB/qdRueDPyfwRg7Rab8qoq/2jPq/Qz0IuIhfEHwPC/ryNrUEGTFDs8fz73Jug2DxXa/5XZUQ5l5n3zFZY46rP6N9spmwAAAAABEccdKPo9aao7FMN00gMHV9VdY5nox/exq7GAlXdb1D/BxJW2rPTsbfF6ydENc3/u4yyEYctzJ6Mzer0nkce+gXwVDZvZEADcqhvhIwn43NtSddgwIHYYAqNJJ9CjrcZzM54h/g3V0gNZOmu9dmr0jx/blSKZwBgO1jWp70I0uV8IbF3SOUmAEBeC+wtivMubU8urGHT1AAAGvRRUVgpE9kETE/FKTIk1HZz+aEusyTwM+qG2ScqwqT/X7jscX9gcDCAmC7xDepBwOk94ifvQ3OC3ULuJYiSOV+UoV+yMRKzZMJ3d1bGNjZTFeE6Cy3NgBtWwLKrEURkYSTNTzcwWYWkvWxu3WRIQn1CvwGGc9io7Gz5Is51lBpSlV+izKQxiSWmWLp8vCYrk4WckDBkvf8g9V+N069hgAAAAAAAAAAAAARVhJRroAAABFeGlmAABJSSoACAAAAAYAEgEDAAEAAAABAAAAGgEFAAEAAABWAAAAGwEFAAEAAABeAAAAKAEDAAEAAAACAAAAEwIDAAEAAAABAAAAaYcEAAEAAABmAAAAAAAAAEgAAAABAAAASAAAAAEAAAAGAACQBwAEAAAAMDIxMAGRBwAEAAAAAQIDAACgBwAEAAAAMDEwMAGgAwABAAAA//8AAAKgBAABAAAAIAMAAAOgBAABAAAAEwIAAAAAAAA=;" parent="1" vertex="1">
          <mxGeometry x="59.71000000000001" y="1080" width="150.66" height="100" as="geometry" />
        </mxCell>
        <mxCell id="Y6noLsDlf5R4uo8bpIC0-132" value="" style="outlineConnect=0;dashed=0;verticalLabelPosition=bottom;verticalAlign=top;align=center;html=1;shape=mxgraph.aws3.elasticache;fillColor=#2E73B8;gradientColor=none;" parent="1" vertex="1">
          <mxGeometry x="1340" y="400" width="120" height="110" as="geometry" />
        </mxCell>
        <mxCell id="Y6noLsDlf5R4uo8bpIC0-133" style="edgeStyle=orthogonalEdgeStyle;rounded=0;orthogonalLoop=1;jettySize=auto;html=1;entryX=0.5;entryY=0;entryDx=0;entryDy=0;entryPerimeter=0;" parent="1" source="Y6noLsDlf5R4uo8bpIC0-6" target="Y6noLsDlf5R4uo8bpIC0-132" edge="1">
          <mxGeometry relative="1" as="geometry" />
        </mxCell>
        <mxCell id="Y6noLsDlf5R4uo8bpIC0-137" style="edgeStyle=orthogonalEdgeStyle;rounded=0;orthogonalLoop=1;jettySize=auto;html=1;" parent="1" target="Y6noLsDlf5R4uo8bpIC0-132" edge="1">
          <mxGeometry relative="1" as="geometry">
            <mxPoint x="105" y="-10" as="sourcePoint" />
            <Array as="points">
              <mxPoint x="1320" y="115" />
              <mxPoint x="1320" y="455" />
            </Array>
          </mxGeometry>
        </mxCell>
        <mxCell id="Y6noLsDlf5R4uo8bpIC0-164" style="edgeStyle=orthogonalEdgeStyle;rounded=0;orthogonalLoop=1;jettySize=auto;html=1;" parent="1" target="Y6noLsDlf5R4uo8bpIC0-146" edge="1">
          <mxGeometry relative="1" as="geometry">
            <mxPoint x="1030" y="940" as="targetPoint" />
            <mxPoint x="105" y="-10" as="sourcePoint" />
            <Array as="points">
              <mxPoint x="1031" y="115" />
              <mxPoint x="1031" y="910" />
            </Array>
          </mxGeometry>
        </mxCell>
        <mxCell id="Y6noLsDlf5R4uo8bpIC0-141" value="Elasticache" style="text;html=1;align=center;verticalAlign=middle;whiteSpace=wrap;rounded=0;fontSize=20;fontColor=#FF0000;" parent="1" vertex="1">
          <mxGeometry x="1380" y="515" width="60" height="50" as="geometry" />
        </mxCell>
        <mxCell id="Bfvj85vFazDPNNq3P2oq-15" style="edgeStyle=orthogonalEdgeStyle;rounded=0;orthogonalLoop=1;jettySize=auto;html=1;" parent="1" source="Y6noLsDlf5R4uo8bpIC0-146" target="Bfvj85vFazDPNNq3P2oq-14" edge="1">
          <mxGeometry relative="1" as="geometry" />
        </mxCell>
        <mxCell id="Bfvj85vFazDPNNq3P2oq-18" style="edgeStyle=orthogonalEdgeStyle;rounded=0;orthogonalLoop=1;jettySize=auto;html=1;" parent="1" source="Y6noLsDlf5R4uo8bpIC0-146" target="Bfvj85vFazDPNNq3P2oq-17" edge="1">
          <mxGeometry relative="1" as="geometry" />
        </mxCell>
        <mxCell id="f_NNupDaaMzZWTMAwLuJ-11" style="edgeStyle=orthogonalEdgeStyle;rounded=0;orthogonalLoop=1;jettySize=auto;html=1;" parent="1" source="Y6noLsDlf5R4uo8bpIC0-146" target="f_NNupDaaMzZWTMAwLuJ-10" edge="1">
          <mxGeometry relative="1" as="geometry" />
        </mxCell>
        <mxCell id="Y6noLsDlf5R4uo8bpIC0-146" value="Amazon RDS" style="sketch=0;outlineConnect=0;fontColor=#232F3E;gradientColor=none;strokeColor=#ffffff;fillColor=#232F3E;dashed=0;verticalLabelPosition=middle;verticalAlign=bottom;align=center;html=1;whiteSpace=wrap;fontSize=10;fontStyle=1;spacing=3;shape=mxgraph.aws4.productIcon;prIcon=mxgraph.aws4.rds;" parent="1" vertex="1">
          <mxGeometry x="1160" y="842.5" width="120" height="147.5" as="geometry" />
        </mxCell>
        <mxCell id="Y6noLsDlf5R4uo8bpIC0-153" style="edgeStyle=orthogonalEdgeStyle;rounded=0;orthogonalLoop=1;jettySize=auto;html=1;" parent="1" source="Y6noLsDlf5R4uo8bpIC0-149" target="Y6noLsDlf5R4uo8bpIC0-146" edge="1">
          <mxGeometry relative="1" as="geometry">
            <Array as="points">
              <mxPoint x="1080" y="200" />
              <mxPoint x="1080" y="445" />
            </Array>
          </mxGeometry>
        </mxCell>
        <mxCell id="Y6noLsDlf5R4uo8bpIC0-158" style="edgeStyle=orthogonalEdgeStyle;rounded=0;orthogonalLoop=1;jettySize=auto;html=1;" parent="1" source="Y6noLsDlf5R4uo8bpIC0-149" target="Y6noLsDlf5R4uo8bpIC0-132" edge="1">
          <mxGeometry relative="1" as="geometry">
            <mxPoint x="1630" y="470" as="targetPoint" />
            <Array as="points">
              <mxPoint x="-370" y="160" />
              <mxPoint x="1660" y="160" />
              <mxPoint x="1660" y="470" />
            </Array>
          </mxGeometry>
        </mxCell>
        <mxCell id="Y6noLsDlf5R4uo8bpIC0-149" value="Security group" style="fillColor=none;strokeColor=#DD3522;verticalAlign=top;fontStyle=0;fontColor=#DD3522;whiteSpace=wrap;html=1;" parent="1" vertex="1">
          <mxGeometry x="-490" y="-277.5" width="170" height="220" as="geometry" />
        </mxCell>
        <mxCell id="Y6noLsDlf5R4uo8bpIC0-165" value="&lt;font color=&quot;#ff3333&quot; style=&quot;font-size: 20px;&quot;&gt;Terraform&lt;/font&gt;" style="swimlane;whiteSpace=wrap;html=1;" parent="1" vertex="1">
          <mxGeometry x="-361" y="-1480" width="970" height="530" as="geometry" />
        </mxCell>
        <mxCell id="Y6noLsDlf5R4uo8bpIC0-182" style="edgeStyle=orthogonalEdgeStyle;rounded=0;orthogonalLoop=1;jettySize=auto;html=1;" parent="Y6noLsDlf5R4uo8bpIC0-165" source="Y6noLsDlf5R4uo8bpIC0-93" target="Y6noLsDlf5R4uo8bpIC0-181" edge="1">
          <mxGeometry relative="1" as="geometry" />
        </mxCell>
        <mxCell id="Y6noLsDlf5R4uo8bpIC0-193" style="edgeStyle=orthogonalEdgeStyle;rounded=0;orthogonalLoop=1;jettySize=auto;html=1;entryX=0.5;entryY=0;entryDx=0;entryDy=0;" parent="Y6noLsDlf5R4uo8bpIC0-165" source="Y6noLsDlf5R4uo8bpIC0-93" target="Y6noLsDlf5R4uo8bpIC0-192" edge="1">
          <mxGeometry relative="1" as="geometry" />
        </mxCell>
        <mxCell id="Y6noLsDlf5R4uo8bpIC0-196" style="edgeStyle=orthogonalEdgeStyle;rounded=0;orthogonalLoop=1;jettySize=auto;html=1;" parent="Y6noLsDlf5R4uo8bpIC0-165" source="Y6noLsDlf5R4uo8bpIC0-93" target="Y6noLsDlf5R4uo8bpIC0-195" edge="1">
          <mxGeometry relative="1" as="geometry" />
        </mxCell>
        <mxCell id="Y6noLsDlf5R4uo8bpIC0-232" style="edgeStyle=orthogonalEdgeStyle;rounded=0;orthogonalLoop=1;jettySize=auto;html=1;entryX=0.5;entryY=0;entryDx=0;entryDy=0;" parent="Y6noLsDlf5R4uo8bpIC0-165" source="Y6noLsDlf5R4uo8bpIC0-93" target="Y6noLsDlf5R4uo8bpIC0-231" edge="1">
          <mxGeometry relative="1" as="geometry" />
        </mxCell>
        <mxCell id="Y6noLsDlf5R4uo8bpIC0-93" value="" style="shape=image;verticalLabelPosition=bottom;labelBackgroundColor=default;verticalAlign=top;aspect=fixed;imageAspect=0;image=data:image/webp,UklGRhofAABXRUJQVlA4WAoAAAAYAAAAWwMAWwMAQUxQSOAJAAANoIVt+/lG+sqxbdu2jfXYthqNa7dpxzNHnllbR8Xatu3dYr076lm/Ivn//7/vvSZfRMhhG0mSpIjzPp55QHZn57kErar/Uf+j/kf9j/of9T/qf9T/qP9R/6P+R/2P+h/1P+p/1P+o/7HOdK33JrDS4YEPfD/h6kf40riL6f8RrFrHszT5QhnBqu2Su8e8BCxjRM7n6r+h/hvqv6H+G6Aycj9DlhG2TP031H9D/Tc0f2P3j8gyYi+p/4b6b6j/hvpvhCI0XC9i6xbEG7mMZUnIMtqmqP+GXRnfe74BljEv4V7131D/jZAZRsa/2NqgiC2jRwyyjOG56r+h/hvqv6H+GzdmGYn3IMuo7VX/jZC7xsJJPxOu2vGPYoJWla8AK7XL/gVWOj0Zf2+ZkaUF/UwG1A4ZHU3s4caoLVvmfIaqhxtvyiT6HVQPN/bOwdU7ZU1iJ8HqnbKoLTuILY6MmzJx9U7ZoFxugI0ko+nB0Qa4ysP1gpkkejOLGJqR84PnGwNCkGQMZhEkGa3iB3EbFIFkRG/ezG1QNEbDSBCjNIwDMU7DLBADNQwCQZJxUxauFtcPYREkGa3jBnLfCwOSUWvHKu57YUgybko39O+FOXIESUbrOHaSBiSj1o7V3GeakWTclGH+n2l+JPkvh5qhLGLmxvZVaRfKnPAkzegNx4sAyQibl8BdxyEChmNFkGS0iWURIBm1t7OPLALJCJsXzx0lhSRjGPv9LiQZbWIHcLcgAsmovZ2dpImG4fgmaUgyhrGTNCQZbdJ6yMsJvj1jXpAWxGH9A+sH79cODBEUI+FRx2MMZydpSDLapnbnLp8HklHbt4SYAskIm5fIXT6PJGM4O0kTH8PZIEAy6nhZRIgMhzJJQ5Ixgp2kIclol9KNmIqT4SgQIBlhyw8SUyQZI9hJmmgZ9o8Il2HzCJCM8GWxxBRJxkg/93+5QZLRLqUrMRU1w3YRcTNsFUGSMZFFkGS0T25HTIFk1PEuJqZAMsKXxRFTJBmTsokpkoyuqU2JKZCMup47iKkoGrYzSUOSMYmdpImkYR8IkIy6nnnEVDANG0CQZExmEeE0VqdaqtEtpQmJatukWqjRcM8cYgokI3zZfmIqqoblIuJqWCsisIaFIkJrWCSCJGMK+24YkozuyY2JKZCMRrtnE1MgGZFrXMQUScbUTGKKJKN7ciNiCiSj0W52kgYkI3KNm5gKtWERCJKMHtk1ialoG0E/SRNvI6gRJBlTs4ipmBvBiQDJaOxjESAZUavZRxYF3ggiBElGD38NYgoko3HcFGIKJCNqNTtJE38joBEkGT390cQUSEbjuMnEFAhGACJgMAIMAYQRSAgkjIBBgGREbdlBDr+vv7EmwoiM+Luz/63y3JJKjr+lvhezZpIBtc7uxUlVbPTykxH0Q1dUbhfjNJrEmgPymG9GQgNjMqoOMYheOXFk59YIc5yy3ZRBhtGixIKsmYY4ZeuVQ0zxYlQpAhmjyhAkGTexa+WRZPRmJ2noMThkEplQH9sz50B9MzK+2FVc3t/iHjKk/n/k5C4zMpa983Z5N41S+TUhw9xqSoYR1mimbMZX45mymVbNysichSzDHZnTFVnG7umhC40rh3sTrprnmaj+G+q/of4b6r+h/hvqv6H+G+q/caOVEd8QW8aWSIJVixOwZXzkUv8N9d9Q/w3F38iYjSzDfVn9N9R/Q/031H8DVsahPsgyvBPUf0P9N0JlGMNTmgLLOOPfemOX0QtZhq8WsEKXrxG0qjLn+v8mlN9KuplZnneRCeXnydPiG5pXvt/3BazeKfvn6BlYPdxYdn8crt4pez0GV++U/ZDwJqzeKbt86iSu3il73Mu9U4Yk481d3DtlSDKKkp6H1SqPKycP42qVR56HW+WBJOMj1xUytURcq+Aqj0kHGxoDEvsMmVt7nnC9VaEJzrHjO83AuHo6h4yuk7Lf9/5sLEael0yv4UvjL6T/ZyTGJ+7/yABbx7Mk5bx5TNlK058kQ2z7pHaut8xiynb9UjIxRZJRyK4KQJLx2b7fiCmQjL+z7yemQDKuX0ogpkgyXmYRJBnf7f+EmALJ+CfrEhlw2ye1j3HgRtn9sWTIneh/3/eTwzZeZXeyGa4Rd9FRG98nvk1MgWT8e+QsMUWS8biPmCLJeIPdyYYk48d4dvk1kIzLp04QU2EwHObyayQZH7KPLCLJKE7MJ6ZiYTjC5ddIMvJYBEnGx27uJg0kGSUZ7E42IBlXT/uJKZKMfBZBkvHp/mJiCiTjLz+7k01kDMe0kw1JxlPsg1VIMr498A0xBZLxdza7k01KjKXJDsgou5hAQtN2yc7HeIXdyYYk4/t9HxNTUTIcx2Gg4mQ4isNAkWS8ziJSZTiEw0AFy3AAO9mQZDzO3quGJONNdvm1jBm2fRiomBm2vJMNSUaem5iKm2Grh4GKm5GfMcdGl1/Lm/Gx+3+7Mq6cYXeyIcnIYz/nKnyG3R0GCiSjNP0JYiqChm0dBiptxoUyOzMK3CR6bZdsZ7cgfraviJgCyfg7+z5iKpCGjSy/RpLxMrsqQDANOzgMFEjGP1kXial4GpZ+GCiSjFdZBEnG9/s+IqaCaljwYaDCaljsYaACa1joYaBCa1jlYaBia1ji8mvRNSzvMFAkGR+ykzQkGUVJ7E42ITYsavk1kow89itDSDI+dl2m8ivQhpUcBirShmUcBookI5+dpIm2EfyHgYqw0c31UsWNoFt+LdEd6f/cAozrl1KIKZKMQnb5NZKMbw98S0xl3Qi2w0DF3Qiqw0BF3giaw0CRZHy3nz0MVOyNNTHRAXgYKLuTTfCNzCfT5gT4YaBIMl5jESQZPySwb9XgwAjEnWxQMALuMFAwGLl9A+owUDgYvmHJzQLnMFBEGDmrY6IDYycbMIwAWH6NJOMjFzEFiFGdh4FixKiuw0CRZOSxCFSMKj8MFElGSQa7kw0WRveYShiV2smGko7IqYxRRYeBAseoisNAsWNU9jBQkBjtXW9WzMjdtjGyvLx1O2GmE/xvHaiQURT3bKfy8iWhpuGr91bQ+IAqXMwY1VOgTNmqoWCZslVxETRlI/XfCF1rHDyd+z/BqvX2PfYCQavqf9T/qP9R/6P+R/2P+h/1P+p/1P+o/1H/o/5H/Y/6H/U/6n/U/6j/Uf+j/kf9j/of9T+h0lNU0hVY+Wny9IQGuPpx5cSRnVsjgPWTiQWZswhX/dB95XBvwlXzPBPVf0P9N9R/Q/031H9D/TfUfyNUkxHfEFvGlkiCVYsTsGV85FL/DfXfUP8N9d9Q/w313wiBYWTMRpbhvqz+G+q/of4b6r+h/hvqvxHq3TjUB1mGd4L6b6j/hoJsPNuZgNV3CVpV/6P+R/2P+h/1PwYZAlZQOCBSFAAAUPAAnQEqXANcAz5tNpdJJCMiISIyWFCADYlnbuF3ThT+AfgB8iUpP+O/sH7N/v/tTfaf7N+vP5Q+gdjl6d/UPz9+RfUa1p5u3iH5/+df8p74f9H6jf4Z/kPYA/hf8I/w/+R/xn69dwD+S+gD+Uf4/9tv/z8Pv/N/xXsw/6HqAf3n/o///2fvUE/s3/m9gD+Gf2r//+tp+7X//+RL9qv27+AP+Jf5L///vh8AH//9tD+Afv/7AH7/+9v1N/hH4AfgB+qvf4FZ/9ARl103sXmegIy66b2LzPQEZddN7F5noCMuum9i8z0BGXXTexeZ6AjLrpvYvM9ARl103sXmegIy66b2LzPQEZddN7F5noCMuum9i8z0BGXXTexeZ6AjLrpvYvM9ARl103sXmegIy66b2LzPQEZddN7F5noCMuum9i8zteaMqJOo83/q8z0BGXXTexeZ6AjLrpvYvM9ARl103i4UHqS8LD+lG15noCMuum9i8z0BGXXTexeZ6AjLrpEKGFXdLecIb3m03sXmegIy66b2LzPQEZddN7F5nn8hQwRB2n08P19O29i8z0BGXXTexeZ6AjLrpvYvM9AN1mcVQxReTjsxUDK301uZ6AjLrpvYvM9ARl103sXmegG6zOKoF3Cjxu1M9a3UYbpvYvM9ARl103sXmegIy66a9ZnFUC3akLyZXXzMIjLrpvYvM9ARl103sXmegIy6iSHu0YbpsDtPp4fr6dt7F5noCMuum9i8z0BGXXTexNjg1N7F5npQvbPXwtTR7U5dow3TexeZ6AjLqDkH3jJPNpvYvMpw2FQLdi8yr6TaMZJjp858YbpvYvM9ARlsSmUqCNyouTv5tN7F5lOGwqBbsXmVfawzOrCnCG95tN7F5noCMhpOUqCNfABMx0eW3m9i8lWZxVAt2LyY5INDHafTw/X07b2LzPQEZAK1rMMHEKWN+xhb2LzO2fPlARl102ByQaT7dpAzOVpvb9njYw3TeKrH/h+Lov2MLexeZ2z58oCMuumwOSDSegjHUl4WH9KNrzO023bah1bmGlGU2sLexeZ2z58oCMuumwOSDSegI+kBLIq6cmbD6tIRp3Ti10IbnmVemzQYrdi5zdfd+GUnoCMuuI296XmegHCg489kVyBIPk1YDEKonoCMtq9/NpvYvM7a6Je0QOlXN1bmecKPwYMVuxeiZ7CdmegIy6jvsYW9i8zz+d+168/Is50rUWG8IAWgckGk9ARl1EgdmcVQLdi6L9jC3sXmegIprzz18LX+SOcMCAEeGo3xW7F5lN7ChglUC3YnRFANxtGG6b2Lo68mV19kMzipTjUb4rdi8ym9hQwSqBbsToigG42jDdN7F5lPdh/FOo9Nl0YajfFbsXmU3sKGCVQLdidEUA3G0YbpvYvM7iQyHCEIp38F0QMM41G+K3YvMpvYUMEqgW7E6IoBuNow3TexeZ5/PXkZnK1YC4cMjxGG6b2JsR4bCoFuxeTGjy283sXmegIy66bxyE56+FsEZSegIy64bd1J9low3SKvmQHb2bTexeZ6AjLrpvYmS+5Wr+T85iArqN4QAt1yQOzOKoFuuEXEqg2+hhYqgW7F5noCMuumvWxEWf/qxgQAtxb2FDBKoEaA81oZzPQEZddN7F5noCKO7edOUmvSftoEY7YMVnqpHBqbxiAHAot2EEZddN7F5noCMuum8XDYUpy02lyeeGxUOlzw2Kbbhi12eyNhhCAFuxeZ6AjLrpvYvJVmcVPtiUAdGvcALcY8YC2jt23WnXOjKxsyCCMuum9i8z0BGXXTexeSrM4qgXco32KFwwgdl9gMwyXKqEhPN7F5noCMuum9i8z0BGQnz5QEZdRA6r/RFMgcVA6mCi1MxsdW5noCMuum9i8z0BGXXTXrM4qgW7E6RGcVywVhmgAQOLzPQEZddN7F5noCMuum9ckh7tGG6b1yUwvCAFuxeZ6AjLrpvYvM9ARls1J9low3TeLhercz0BGXXTexeZ6AjLrpvYugKGCVQLdi6AnZnoCMuum9i8z0BGXXTexeZ2z58oCMuumvWUnoCMuum9i8z0BGXXTexeZ5vjg1N7F5nm+NrzPQEZddN7F5noCMuum9i8ynDYVAt2LzKcL1bmegIy66b2LzPQEZddN7F0BQwSqBbsXQE7M9ARl103sXmegIy66b2LzO0hlqPIcGpvYvM7Z8YbpvYvM9ARl103sXmegIy66RI1Jk3q6aU2jDdNespPQEZddN7F5noCMuum9i8z0A4hLb3dzm+grvfDjC3YugJ2Z6AjLrpvYvM9ARl103sXmegIprzz18LX+SOcMCAEYTsz0BGXXTexeZ6AjLrpvYvM9ARltgJ2RV03lDBKDUbALdi8z0BGXXTexeZ6AjLrpvYvM7a6Je0QQl5TWXNpvYvM9ARl103sXmegIy66b2LzPQDiEtvd3Ob6Cu98OGEfxW7F5noCMuum9i8z0BGXXTexeZ6AimvPPXwtf5I5CdmegIy66b2LzPQEZddN7F5noCMuum9idiWnoNDZO66b2LzPQEZddN7F5noCMuum9i8z0BGXXTexeZ6AjLqAAA/uDMAAAAAAAAAAAAAHK6Fv/9wH5q0hN1oRovoOc3BSH0+wVydtyT0w3ilIk4DPUr8AuvSFd5ZLFn+Er+lyd/MX2KtOEjMUTBnlCel2/CY1lYAIVORYgVqR+pAKEsWnVWBNZwHcyLr4usJ0rH3ZeQOwMqgXS8SExv6ZqJEWQ5wUJZUiAA0BDvm+jEKUd4mKSvNOFPkCgig3lqfdo9I2MBiRnjypRH+VHVZ8fC1sTBWaIhZ5KKUAKKbDvm1o76onSXwKWgIliG/1OWlWJ6Oufv+FjszxNCaVgTY2GbR0G+1dgBYdLzoeAobWLkPvDnCHldP/x0aKIk0C3lR4697raYNnUh8lRTRw6CyHr5Tx5IewAOSNg4pQCFmSGpAKEsWnWqTeM+YTgbVppuzlhAIYQ7mKXLJ3K4ul0k12bM2TbSMtnIoAC145J0PAUNrVOEcqG19BGkQ+8aGF3rL8kqXPV7csQvLcbIq4WhyH6Ru0yahz6Wl1hN5GAYHGB1IBQli07Gl3l3WA9aMuhKZCvTeM+YTgfZQUHJ2g2kKLqGBEMAbnHWGpcbeeuatcQvRwUd0a4X2uLVDaF7HVueMqafg/5Yayme9C3lR5BvxztkT525hGa4yk8AQ6HbSx7mxxJc0ckXyck6XdxDyP33XxhEPlpkCKnagDX55+FpFVPNcL4myj0oKcDZ76P4A/Qgvc2MJc42WJGFf4evHdwwDPWi++bWjvqibeTeM+YTggD4X4fwBD5ugqnP+OhCdjQoCW4Z2mzNo6DfauxJeLV9ZSIuDqLbiaoqsmM7q0T7qhCV6YEEAJ8nzVa3QvYDPKg7YtKFvXaeHnTU6Y9zVZHDiHWdDwFDa1ThHKhtfQRpEPvGhhd6y/JKlzjAYkZ49aFEf5UdVnx8Pr0pzXYndcOnZ0hAEzGy+PN/pLO5o3IMD73T4wZbje++d2HyhAtJofwcauXKsdD0NKKhV0puBGIbGRzZF3t8fTv0B4ALV40BoKjvlh6B3za0d9UTpL4FLQESxDf6nLSrE9HXP3/Cx2Z4mhNKwJsbDNo6Dfau6X0fzoT3qIjLcQ8j9937xQS4Zw2KlxEQYGfaer7w82OaywR73kENswwvK8E1l7r5x0oxPC4S2IIK2v/Hq6jiQbKN+/kny6ToeAobWLkPvDuyNU9QbLDWuqdHmH1p7fePpWEr+lwl4h3CEbqmMYGKFl2RKksWEyCAbkaL/+0eutPJs1HkkvdmD5HcJzgP/rurprahucy0CabCguE//3F9elSleM6b6DKvDBU1PknRBTthoD5povtgW42e+E/826U25+MDoyuwEWcmAo9SAUJYtOtUm8Z8wnA2rTTdnLCAQwh3MUuWTuVxdLpJrs2Zsm2kZbORSN8WvFBLfh8gsEndFg/xbfvv0k//uAYEWt4mX3h5sc1lHtdC4URrVBpFs9FJRdzoDgzyKaLrckSXD3D6WzxkKez1Fj2uT6AQayNk0wHKdDwFDa1ThHKhtfQRpEPvGhhd6y/JKlzjAYkZ49aFEf5UdVnx8Pr0pzXYndcOnbHNTMxsvjzf6SyzmWgTXSrKlc4qbX9B+yIjAA7lJi43Sd69DYgJwhcNnA3pTvYQeslkkXi5z268KHPHjLBFXGyVk27Fni9uGPoVo4lP1086VR5kviMp9NcgVzm0JfyD2fPGzvm1o76onSXwKWgIliG/1OWlWJ6Oufv+FlZkXr2QmN9IXZtHQb7WPWhcnKDbiHkfvu/X1lIi4OotrnrVuPRSoWG+A636ivcrb8xb5Y5ZbR5FOB5hScssO0gTD9UwHWAGlCHo9fJ4JEsPDz0RsA178j3OfRHjB2OVxMjfQ+fDu5KT4J1cnA2FdcE5lKQPhkJE7kekCociz69xykyH7qw5GsDKBav5n3Wm000lt18NWOU8GGY8xcf6t9lf7Xa36SQGN6Lyzj68VtBLWyzjshdQh6ERsy6l+H8JotaeQuH6wlN/TlHbv0OZ26AABgfamr9zVk6vBcbYBOFgjfr5YcHKHZbRXxTzA6vwZv81rtXAxAsqHzhW+Ji5Cpkd36OsQ2X5pRKBfTd7moKiVkahMYg2ZdS/D+E6GxczHWiixwxWayGLiZGzAlPf/QhZTwTq5OBsK64lHVgPaRQOD7Dstor4nz12rQxQ6+15Z9xfAhr9zYfyVOGm1rQfMHhzKAe/WSBpdkMRQrGhD0B84xPyKbQQ++uJkZqkUZWBht1Zp4fUD1V8ZBKI3tQGk7l8b5C1NZ5P9j2kUDgMyeNT9FPmjeyOcK3xMXIVMju/R1h88XFQ164QMhhX8bVSEuAGKilZ2AGHhjSLmc+yxrobIqeecbjSZ6+X7blguRglTpCWq2blVptTl/kBuWJab6GSbM4UVPYHpLXMg91ko+DsNnndpxQCuxMwp0SSnaSiMES4WecB1FzSCt2Y9TbkVobz0RbYr35HuozVxYi6fpiI8YOxK50SkvsdsyP2fF5KQN+CdXJTISEAfREfFgjrC+z7zx1vlXynHzP739I2eDpmbXVqDqfEJVDyVkkwN/vV5sx3/LwfJ1MiRy6L73TWrvJm3s8TradnSkFZNXxVqEJkZ3k7wxRb/lbgyrwYS9UmvCvmzffVLOtwOLQM5CxtzlNJWZLJ6eD6EO6TYM3/NV+3FRTRNWvGrdDWtEwEVB3sD2+SkjjwfkKbwXsSIDtwcb6M7ZJ1vJjP1TZtUW/TLAettVoJDejwB4Lyg7GX//2x3rK3+epZWrSWaS4iCozJXO+D4P3QH5gXTO/2t8O2lt/+6IhlvPJCALKuCz+VYcq1tNzJyr/dM1DI4riP9MNzoM1vLwYNI5ylA2pPBaCMqstTAw6niDFCmdzm30EL0gUL35Huh6ML7zMlNevYftq+s9sJ8g240OkjnL8Zx3b8TRTLjNV0QfqZEw1We0i3clgIO2dxpUHGdh/UMLGnD3j+yeNSmh5Oi9B5TyrjdhprsKYCvIMSicuLw0wWhxtozdJLqsQmYtSwkH6ZyIXp3ARl8U1/tUu6q3wAz1pGQwVSZBlvS/P1gr6ic7b1Z7lJ6zhu0D8BwQvJnljTfmalfxhWyTdV867sRQ/OeIHq3Ikufj2pxgcM7/dojmCXSsvzIxqqcLZZG+hgEFr7JqHDNmgHqeoAee8P2oYUIHwfugOav7hfUwVhwwUwIh7wp7Ybpo15zS6FK+fiy3DTJ8FfPnyuswuxbdKeWc9wlxzkg01iHllvQvpQ+zwg3TLeyFQWhmmK39OUeSquLEXT+ETT4VnexIpZchKpljWgJzyUgb8E6uSmQkIDzLWrWRXbLBUAQRbL/I26EhfSwc5t719/YhDMiYajRUYpg4tcXdsk6KCjHzDajfHRiLtWxySZhVBuIaoA9zRrwoMkbOWCGu4M/+0sVY06q8OEneDIEYJmFEso7MFaa1D4TncPSBZpvwDl5jPcpPWcN29GRqH3TT+HhtXGsAQ/JaP58hu7R04aaVptYE2d1/d0uOG5y3sioRo59b1HAhEHzSzrmcitHYnhkmJm4EJaG8lw12VZAYKiKUhl6189qpTlwzUT0WhK2nByp1+/bdIJOEcAYRo14QItDGvZTkSrnpzKJqJ+nLjnJBprEMyDF6O5NaQdRRWB0UPwKWZkoVfS7+8b5Cpzd9nLoScJwd8MGzOSO6mjcIsycQJjTq2UvVhXLYdW4pIS4lipIo1z0tQmGZDAo+oqOgAFGUYNOhuzT2tZFprUUYy53+I1S3fCfd5k2ezXOdeW6jBqnYgAGwaNeDT4G8HYIa7g4TrGmsVZ/fXaWKsadVgIRhfQR9fhPrvF1rfUSegPa+Glrdk+WMKmtrXtsEw3mu4tj3WAAdBo14iPaGrncGR4AUOgIKWnEBrGjXiJQCl0BBUOKAR+gIKhxQCP0BBUOKAR+gIKhxQBVzxqfop/vbFaku36ebJRZL4jKfTXIErhOGuCqxztHABgrrxifkU2giGSlD1GSeiqJ0SLOqLiZG+iZ09/9CFlPBOrk4GwrrgyRQAVodltFfE+eu1aGKHX2vLPuL4ENfubD+Spw02taD5hEhDKNrm1LRKCBb2HAAbeMT8im0EPvriZGapFGVgYbdWaeH1A9VfGQSiN7UBpO5fG+QtFEKAAkWBlAtX9K5BNNP4d+wG36NuPHHIddPOlUeZL4jKfTXIFc5s71o9COFAAPPyeMT8im0EQyUoeoyT0wxQiBMbAFrdZrP0hndyUnwTq5OBsK64xxwAG2HZbRXxPnrtWhih19ryz7i+BDX7mw/kqcNNrWg+YPDmUA9+skDS7IoQoAAiNmXUvw/hNFk451F8BGodemzrwPSp89UOLew/bV9XRlwVslca9RwAAsw7LaK+J9AJhbgAAAAAARVhJRroAAABFeGlmAABJSSoACAAAAAYAEgEDAAEAAAABAAAAGgEFAAEAAABWAAAAGwEFAAEAAABeAAAAKAEDAAEAAAACAAAAEwIDAAEAAAABAAAAaYcEAAEAAABmAAAAAAAAAEgAAAABAAAASAAAAAEAAAAGAACQBwAEAAAAMDIxMAGRBwAEAAAAAQIDAACgBwAEAAAAMDEwMAGgAwABAAAA//8AAAKgBAABAAAAXAMAAAOgBAABAAAAXAMAAAAAAAA=;" parent="Y6noLsDlf5R4uo8bpIC0-165" vertex="1">
          <mxGeometry x="360" y="30" width="100" height="100" as="geometry" />
        </mxCell>
        <mxCell id="Y6noLsDlf5R4uo8bpIC0-170" value="&lt;font color=&quot;#ff3333&quot;&gt;&lt;span style=&quot;font-size: 20px;&quot;&gt;EKS&amp;nbsp;&lt;/span&gt;&lt;/font&gt;" style="rounded=1;whiteSpace=wrap;html=1;fillColor=#b1ddf0;strokeColor=#10739e;" parent="Y6noLsDlf5R4uo8bpIC0-165" vertex="1">
          <mxGeometry x="240" y="200" width="120" height="60" as="geometry" />
        </mxCell>
        <mxCell id="Y6noLsDlf5R4uo8bpIC0-171" style="edgeStyle=orthogonalEdgeStyle;rounded=0;orthogonalLoop=1;jettySize=auto;html=1;entryX=0.883;entryY=0.05;entryDx=0;entryDy=0;entryPerimeter=0;" parent="Y6noLsDlf5R4uo8bpIC0-165" source="Y6noLsDlf5R4uo8bpIC0-93" target="Y6noLsDlf5R4uo8bpIC0-170" edge="1">
          <mxGeometry relative="1" as="geometry" />
        </mxCell>
        <mxCell id="Y6noLsDlf5R4uo8bpIC0-181" value="&lt;font color=&quot;#ff3333&quot;&gt;&lt;span style=&quot;font-size: 20px;&quot;&gt;Ec2&lt;/span&gt;&lt;/font&gt;" style="rounded=1;whiteSpace=wrap;html=1;fillColor=#b1ddf0;strokeColor=#10739e;" parent="Y6noLsDlf5R4uo8bpIC0-165" vertex="1">
          <mxGeometry x="430" y="200" width="120" height="60" as="geometry" />
        </mxCell>
        <mxCell id="Y6noLsDlf5R4uo8bpIC0-192" value="&lt;font color=&quot;#ff3333&quot;&gt;&lt;span style=&quot;font-size: 20px;&quot;&gt;RDS&lt;/span&gt;&lt;/font&gt;" style="rounded=1;whiteSpace=wrap;html=1;fillColor=#b1ddf0;strokeColor=#10739e;" parent="Y6noLsDlf5R4uo8bpIC0-165" vertex="1">
          <mxGeometry x="590" y="200" width="120" height="60" as="geometry" />
        </mxCell>
        <mxCell id="Y6noLsDlf5R4uo8bpIC0-195" value="&lt;font color=&quot;#ff3333&quot;&gt;&lt;span style=&quot;font-size: 20px;&quot;&gt;Elasticache&lt;/span&gt;&lt;/font&gt;" style="rounded=1;whiteSpace=wrap;html=1;fillColor=#b1ddf0;strokeColor=#10739e;" parent="Y6noLsDlf5R4uo8bpIC0-165" vertex="1">
          <mxGeometry x="780" y="240" width="120" height="60" as="geometry" />
        </mxCell>
        <mxCell id="Y6noLsDlf5R4uo8bpIC0-231" value="&lt;div&gt;&lt;font color=&quot;#ff3333&quot;&gt;&lt;span style=&quot;font-size: 20px;&quot;&gt;VPC&amp;nbsp;&lt;/span&gt;&lt;/font&gt;&lt;/div&gt;" style="rounded=1;whiteSpace=wrap;html=1;fillColor=#b1ddf0;strokeColor=#10739e;" parent="Y6noLsDlf5R4uo8bpIC0-165" vertex="1">
          <mxGeometry x="350" y="410" width="120" height="60" as="geometry" />
        </mxCell>
        <mxCell id="3ioJj0Dn1pjQIeYTbm-Q-3" style="edgeStyle=orthogonalEdgeStyle;rounded=0;orthogonalLoop=1;jettySize=auto;html=1;" edge="1" parent="1" source="Y6noLsDlf5R4uo8bpIC0-201" target="3ioJj0Dn1pjQIeYTbm-Q-1">
          <mxGeometry relative="1" as="geometry" />
        </mxCell>
        <mxCell id="Y6noLsDlf5R4uo8bpIC0-201" value="&lt;font color=&quot;#ff0000&quot; style=&quot;font-size: 20px;&quot;&gt;K8 EKS&lt;/font&gt;" style="swimlane;whiteSpace=wrap;html=1;" parent="1" vertex="1">
          <mxGeometry x="-930" y="690" width="680" height="940" as="geometry" />
        </mxCell>
        <mxCell id="Y6noLsDlf5R4uo8bpIC0-116" value="K8 Autoscalling" style="text;html=1;align=center;verticalAlign=middle;whiteSpace=wrap;rounded=0;fontSize=20;fontColor=#FF3333;" parent="Y6noLsDlf5R4uo8bpIC0-201" vertex="1">
          <mxGeometry x="300" y="780" width="60" height="30" as="geometry" />
        </mxCell>
        <mxCell id="f_NNupDaaMzZWTMAwLuJ-2" value="&lt;font color=&quot;#ff0000&quot; style=&quot;font-size: 20px;&quot;&gt;Karpenter&lt;/font&gt;" style="rounded=1;whiteSpace=wrap;html=1;fillColor=#b1ddf0;strokeColor=#10739e;" parent="Y6noLsDlf5R4uo8bpIC0-201" vertex="1">
          <mxGeometry x="50" y="630" width="120" height="60" as="geometry" />
        </mxCell>
        <mxCell id="f_NNupDaaMzZWTMAwLuJ-5" value="&lt;font style=&quot;font-size: 20px;&quot; color=&quot;#ff3333&quot;&gt;Stakater&lt;/font&gt;" style="rounded=1;whiteSpace=wrap;html=1;fillColor=#b1ddf0;strokeColor=#10739e;" parent="Y6noLsDlf5R4uo8bpIC0-201" vertex="1">
          <mxGeometry x="450" y="630" width="120" height="60" as="geometry" />
        </mxCell>
        <mxCell id="Y6noLsDlf5R4uo8bpIC0-202" style="edgeStyle=orthogonalEdgeStyle;rounded=0;orthogonalLoop=1;jettySize=auto;html=1;entryX=0.328;entryY=0.006;entryDx=0;entryDy=0;entryPerimeter=0;" parent="1" source="Y6noLsDlf5R4uo8bpIC0-84" target="Y6noLsDlf5R4uo8bpIC0-201" edge="1">
          <mxGeometry relative="1" as="geometry" />
        </mxCell>
        <mxCell id="Y6noLsDlf5R4uo8bpIC0-206" value="&lt;font color=&quot;#ff0000&quot; style=&quot;font-size: 20px;&quot;&gt;K8 Application Loadbalanacer&amp;nbsp;&lt;/font&gt;" style="swimlane;whiteSpace=wrap;html=1;" parent="1" vertex="1">
          <mxGeometry x="-2490" y="685" width="640" height="1250" as="geometry" />
        </mxCell>
        <mxCell id="Y6noLsDlf5R4uo8bpIC0-104" style="edgeStyle=orthogonalEdgeStyle;rounded=0;orthogonalLoop=1;jettySize=auto;html=1;" parent="Y6noLsDlf5R4uo8bpIC0-206" source="Y6noLsDlf5R4uo8bpIC0-97" target="Y6noLsDlf5R4uo8bpIC0-103" edge="1">
          <mxGeometry relative="1" as="geometry" />
        </mxCell>
        <mxCell id="Y6noLsDlf5R4uo8bpIC0-109" style="edgeStyle=orthogonalEdgeStyle;rounded=0;orthogonalLoop=1;jettySize=auto;html=1;" parent="Y6noLsDlf5R4uo8bpIC0-206" source="Y6noLsDlf5R4uo8bpIC0-97" target="Y6noLsDlf5R4uo8bpIC0-106" edge="1">
          <mxGeometry relative="1" as="geometry" />
        </mxCell>
        <mxCell id="Y6noLsDlf5R4uo8bpIC0-208" style="edgeStyle=orthogonalEdgeStyle;rounded=0;orthogonalLoop=1;jettySize=auto;html=1;" parent="Y6noLsDlf5R4uo8bpIC0-206" source="Y6noLsDlf5R4uo8bpIC0-97" target="Y6noLsDlf5R4uo8bpIC0-101" edge="1">
          <mxGeometry relative="1" as="geometry" />
        </mxCell>
        <mxCell id="Y6noLsDlf5R4uo8bpIC0-97" value="" style="points=[];aspect=fixed;html=1;align=center;shadow=0;dashed=0;fillColor=#FF6A00;strokeColor=none;shape=mxgraph.alibaba_cloud.alb_application_load_balancer_02;" parent="Y6noLsDlf5R4uo8bpIC0-206" vertex="1">
          <mxGeometry x="240" y="70" width="100" height="100" as="geometry" />
        </mxCell>
        <mxCell id="Y6noLsDlf5R4uo8bpIC0-118" style="edgeStyle=orthogonalEdgeStyle;rounded=0;orthogonalLoop=1;jettySize=auto;html=1;" parent="Y6noLsDlf5R4uo8bpIC0-206" source="Y6noLsDlf5R4uo8bpIC0-103" target="Y6noLsDlf5R4uo8bpIC0-117" edge="1">
          <mxGeometry relative="1" as="geometry" />
        </mxCell>
        <mxCell id="Y6noLsDlf5R4uo8bpIC0-103" value="" style="image;aspect=fixed;perimeter=ellipsePerimeter;html=1;align=center;shadow=0;dashed=0;fontColor=#4277BB;labelBackgroundColor=default;fontSize=12;spacingTop=3;image=img/lib/ibm/vpc/Rules.svg;" parent="Y6noLsDlf5R4uo8bpIC0-206" vertex="1">
          <mxGeometry x="430" y="360" width="100" height="100" as="geometry" />
        </mxCell>
        <mxCell id="Y6noLsDlf5R4uo8bpIC0-106" value="" style="image;aspect=fixed;perimeter=ellipsePerimeter;html=1;align=center;shadow=0;dashed=0;fontColor=#4277BB;labelBackgroundColor=default;fontSize=12;spacingTop=3;image=img/lib/ibm/blockchain/event_listener.svg;" parent="Y6noLsDlf5R4uo8bpIC0-206" vertex="1">
          <mxGeometry x="230" y="360" width="100" height="100" as="geometry" />
        </mxCell>
        <mxCell id="Y6noLsDlf5R4uo8bpIC0-111" value="&lt;font color=&quot;#ff3333&quot;&gt;&lt;span style=&quot;font-size: 20px;&quot;&gt;k8 Listner&amp;nbsp;&lt;/span&gt;&lt;/font&gt;" style="text;html=1;align=center;verticalAlign=middle;whiteSpace=wrap;rounded=0;" parent="Y6noLsDlf5R4uo8bpIC0-206" vertex="1">
          <mxGeometry x="60" y="470" width="60" height="30" as="geometry" />
        </mxCell>
        <mxCell id="Y6noLsDlf5R4uo8bpIC0-112" value="&lt;font color=&quot;#ff3333&quot;&gt;&lt;span style=&quot;font-size: 20px;&quot;&gt;Rules&lt;/span&gt;&lt;/font&gt;" style="text;html=1;align=center;verticalAlign=middle;whiteSpace=wrap;rounded=0;" parent="Y6noLsDlf5R4uo8bpIC0-206" vertex="1">
          <mxGeometry x="450" y="470" width="60" height="30" as="geometry" />
        </mxCell>
        <mxCell id="Y6noLsDlf5R4uo8bpIC0-113" value="&lt;font color=&quot;#ff3333&quot;&gt;&lt;span style=&quot;font-size: 20px;&quot;&gt;K8 Target Group&amp;nbsp;&lt;/span&gt;&lt;/font&gt;" style="text;html=1;align=center;verticalAlign=middle;whiteSpace=wrap;rounded=0;" parent="Y6noLsDlf5R4uo8bpIC0-206" vertex="1">
          <mxGeometry x="250" y="480" width="60" height="30" as="geometry" />
        </mxCell>
        <mxCell id="Y6noLsDlf5R4uo8bpIC0-120" style="edgeStyle=orthogonalEdgeStyle;rounded=0;orthogonalLoop=1;jettySize=auto;html=1;entryX=0.5;entryY=0;entryDx=0;entryDy=0;" parent="Y6noLsDlf5R4uo8bpIC0-206" source="Y6noLsDlf5R4uo8bpIC0-117" target="Y6noLsDlf5R4uo8bpIC0-119" edge="1">
          <mxGeometry relative="1" as="geometry" />
        </mxCell>
        <mxCell id="Y6noLsDlf5R4uo8bpIC0-117" value="AWS Certificate Manager" style="sketch=0;outlineConnect=0;fontColor=#232F3E;gradientColor=none;strokeColor=#ffffff;fillColor=#232F3E;dashed=0;verticalLabelPosition=middle;verticalAlign=bottom;align=center;html=1;whiteSpace=wrap;fontSize=10;fontStyle=1;spacing=3;shape=mxgraph.aws4.productIcon;prIcon=mxgraph.aws4.certificate_manager_3;" parent="Y6noLsDlf5R4uo8bpIC0-206" vertex="1">
          <mxGeometry x="430" y="740" width="120" height="150" as="geometry" />
        </mxCell>
        <mxCell id="Y6noLsDlf5R4uo8bpIC0-119" value="&lt;font color=&quot;#ff3333&quot;&gt;&lt;span style=&quot;font-size: 20px;&quot;&gt;project636online&lt;/span&gt;&lt;/font&gt;" style="rounded=1;whiteSpace=wrap;html=1;fillColor=#cce5ff;strokeColor=#36393d;" parent="Y6noLsDlf5R4uo8bpIC0-206" vertex="1">
          <mxGeometry x="410" y="1120" width="160" height="70" as="geometry" />
        </mxCell>
        <mxCell id="Y6noLsDlf5R4uo8bpIC0-101" value="" style="image;aspect=fixed;perimeter=ellipsePerimeter;html=1;align=center;shadow=0;dashed=0;fontColor=#4277BB;labelBackgroundColor=default;fontSize=12;spacingTop=3;image=img/lib/ibm/vpc/LoadBalancerListener.svg;" parent="Y6noLsDlf5R4uo8bpIC0-206" vertex="1">
          <mxGeometry x="40" y="360" width="100" height="100" as="geometry" />
        </mxCell>
        <mxCell id="Y6noLsDlf5R4uo8bpIC0-214" value="" style="rounded=1;arcSize=10;dashed=0;fillColor=none;gradientColor=none;strokeWidth=2;" parent="1" vertex="1">
          <mxGeometry x="-90" y="-305" width="380" height="275" as="geometry" />
        </mxCell>
        <mxCell id="Y6noLsDlf5R4uo8bpIC0-215" value="" style="dashed=0;html=1;shape=mxgraph.aws3.permissions;fillColor=#D9A741;gradientColor=none;dashed=0;" parent="1" vertex="1">
          <mxGeometry x="-70" y="-325" width="30" height="35" as="geometry" />
        </mxCell>
        <mxCell id="Y6noLsDlf5R4uo8bpIC0-216" style="edgeStyle=orthogonalEdgeStyle;rounded=0;orthogonalLoop=1;jettySize=auto;html=1;entryX=0.463;entryY=0.011;entryDx=0;entryDy=0;entryPerimeter=0;" parent="1" source="Y6noLsDlf5R4uo8bpIC0-6" target="Y6noLsDlf5R4uo8bpIC0-214" edge="1">
          <mxGeometry relative="1" as="geometry" />
        </mxCell>
        <mxCell id="Y6noLsDlf5R4uo8bpIC0-219" style="edgeStyle=orthogonalEdgeStyle;rounded=0;orthogonalLoop=1;jettySize=auto;html=1;entryX=0.506;entryY=0.1;entryDx=0;entryDy=0;entryPerimeter=0;" parent="1" source="Y6noLsDlf5R4uo8bpIC0-214" target="Y6noLsDlf5R4uo8bpIC0-43" edge="1">
          <mxGeometry relative="1" as="geometry">
            <Array as="points">
              <mxPoint x="-40" y="60" />
              <mxPoint x="-40" y="60" />
            </Array>
          </mxGeometry>
        </mxCell>
        <mxCell id="Y6noLsDlf5R4uo8bpIC0-220" style="edgeStyle=orthogonalEdgeStyle;rounded=0;orthogonalLoop=1;jettySize=auto;html=1;entryX=0.594;entryY=0.16;entryDx=0;entryDy=0;entryPerimeter=0;" parent="1" source="Y6noLsDlf5R4uo8bpIC0-214" target="Y6noLsDlf5R4uo8bpIC0-47" edge="1">
          <mxGeometry relative="1" as="geometry">
            <Array as="points">
              <mxPoint x="200" y="150" />
              <mxPoint x="227" y="150" />
            </Array>
          </mxGeometry>
        </mxCell>
        <mxCell id="Y6noLsDlf5R4uo8bpIC0-222" value="&lt;font color=&quot;#ff3333&quot; style=&quot;font-size: 20px;&quot;&gt;Monitoring&lt;/font&gt;" style="swimlane;whiteSpace=wrap;html=1;" parent="1" vertex="1">
          <mxGeometry x="-171.06" y="1360" width="850" height="650" as="geometry" />
        </mxCell>
        <mxCell id="Y6noLsDlf5R4uo8bpIC0-124" value="" style="image;aspect=fixed;html=1;points=[];align=center;fontSize=12;image=img/lib/azure2/other/Grafana.svg;" parent="Y6noLsDlf5R4uo8bpIC0-222" vertex="1">
          <mxGeometry x="565.06" y="200" width="128.78" height="100" as="geometry" />
        </mxCell>
        <mxCell id="Y6noLsDlf5R4uo8bpIC0-130" value="" style="sketch=0;outlineConnect=0;fontColor=#232F3E;gradientColor=none;fillColor=#8C4FFF;strokeColor=none;dashed=0;verticalLabelPosition=bottom;verticalAlign=top;align=center;html=1;fontSize=12;fontStyle=0;aspect=fixed;pointerEvents=1;shape=mxgraph.aws4.opensearch_dashboards;" parent="Y6noLsDlf5R4uo8bpIC0-222" vertex="1">
          <mxGeometry x="583.96" y="440" width="132.2" height="100" as="geometry" />
        </mxCell>
        <mxCell id="Y6noLsDlf5R4uo8bpIC0-131" style="edgeStyle=orthogonalEdgeStyle;rounded=0;orthogonalLoop=1;jettySize=auto;html=1;" parent="Y6noLsDlf5R4uo8bpIC0-222" source="Y6noLsDlf5R4uo8bpIC0-124" target="Y6noLsDlf5R4uo8bpIC0-130" edge="1">
          <mxGeometry relative="1" as="geometry" />
        </mxCell>
        <mxCell id="Y6noLsDlf5R4uo8bpIC0-140" value="Dashboard" style="text;html=1;align=center;verticalAlign=middle;whiteSpace=wrap;rounded=0;fontSize=20;fontColor=#FF0000;" parent="Y6noLsDlf5R4uo8bpIC0-222" vertex="1">
          <mxGeometry x="620.06" y="560" width="60" height="30" as="geometry" />
        </mxCell>
        <mxCell id="Y6noLsDlf5R4uo8bpIC0-139" value="Grafana" style="text;html=1;align=center;verticalAlign=middle;whiteSpace=wrap;rounded=0;fontSize=20;fontColor=#FF0000;" parent="Y6noLsDlf5R4uo8bpIC0-222" vertex="1">
          <mxGeometry x="591.06" y="160" width="60" height="30" as="geometry" />
        </mxCell>
        <mxCell id="Y6noLsDlf5R4uo8bpIC0-125" value="" style="points=[];aspect=fixed;html=1;align=center;shadow=0;dashed=0;fillColor=#FF6A00;strokeColor=none;shape=mxgraph.alibaba_cloud.prometheus;" parent="Y6noLsDlf5R4uo8bpIC0-222" vertex="1">
          <mxGeometry x="171.06" y="210" width="100" height="100" as="geometry" />
        </mxCell>
        <mxCell id="Y6noLsDlf5R4uo8bpIC0-128" style="edgeStyle=orthogonalEdgeStyle;rounded=0;orthogonalLoop=1;jettySize=auto;html=1;" parent="Y6noLsDlf5R4uo8bpIC0-222" source="Y6noLsDlf5R4uo8bpIC0-125" target="Y6noLsDlf5R4uo8bpIC0-124" edge="1">
          <mxGeometry relative="1" as="geometry" />
        </mxCell>
        <mxCell id="Y6noLsDlf5R4uo8bpIC0-138" value="Prometheus" style="text;html=1;align=center;verticalAlign=middle;whiteSpace=wrap;rounded=0;fontSize=20;fontColor=#FF0000;" parent="Y6noLsDlf5R4uo8bpIC0-222" vertex="1">
          <mxGeometry x="191.06" y="320" width="60" height="30" as="geometry" />
        </mxCell>
        <mxCell id="Y6noLsDlf5R4uo8bpIC0-225" style="edgeStyle=orthogonalEdgeStyle;rounded=0;orthogonalLoop=1;jettySize=auto;html=1;entryX=0.5;entryY=0;entryDx=0;entryDy=0;" parent="1" source="Y6noLsDlf5R4uo8bpIC0-170" target="Y6noLsDlf5R4uo8bpIC0-201" edge="1">
          <mxGeometry relative="1" as="geometry" />
        </mxCell>
        <mxCell id="Y6noLsDlf5R4uo8bpIC0-226" style="edgeStyle=orthogonalEdgeStyle;rounded=0;orthogonalLoop=1;jettySize=auto;html=1;entryX=1;entryY=0.21;entryDx=0;entryDy=0;entryPerimeter=0;" parent="1" source="Y6noLsDlf5R4uo8bpIC0-195" target="Y6noLsDlf5R4uo8bpIC0-132" edge="1">
          <mxGeometry relative="1" as="geometry" />
        </mxCell>
        <mxCell id="Y6noLsDlf5R4uo8bpIC0-235" style="edgeStyle=orthogonalEdgeStyle;rounded=0;orthogonalLoop=1;jettySize=auto;html=1;entryX=0.457;entryY=-0.022;entryDx=0;entryDy=0;entryPerimeter=0;" parent="1" source="Y6noLsDlf5R4uo8bpIC0-231" target="Y6noLsDlf5R4uo8bpIC0-6" edge="1">
          <mxGeometry relative="1" as="geometry" />
        </mxCell>
        <mxCell id="Bfvj85vFazDPNNq3P2oq-5" style="edgeStyle=orthogonalEdgeStyle;rounded=0;orthogonalLoop=1;jettySize=auto;html=1;" parent="1" source="Bfvj85vFazDPNNq3P2oq-1" target="Y6noLsDlf5R4uo8bpIC0-84" edge="1">
          <mxGeometry relative="1" as="geometry" />
        </mxCell>
        <mxCell id="Bfvj85vFazDPNNq3P2oq-1" value="" style="sketch=0;outlineConnect=0;fontColor=#232F3E;gradientColor=none;fillColor=#232F3D;strokeColor=none;dashed=0;verticalLabelPosition=bottom;verticalAlign=top;align=center;html=1;fontSize=12;fontStyle=0;aspect=fixed;pointerEvents=1;shape=mxgraph.aws4.git_repository;" parent="1" vertex="1">
          <mxGeometry x="-1521.18" y="-240" width="76.92" height="100" as="geometry" />
        </mxCell>
        <mxCell id="Bfvj85vFazDPNNq3P2oq-2" value="" style="sketch=0;outlineConnect=0;fontColor=#232F3E;gradientColor=none;fillColor=#232F3D;strokeColor=none;dashed=0;verticalLabelPosition=bottom;verticalAlign=top;align=center;html=1;fontSize=12;fontStyle=0;aspect=fixed;pointerEvents=1;shape=mxgraph.aws4.git_repository;" parent="1" vertex="1">
          <mxGeometry x="-1324.26" y="-240" width="76.92" height="100" as="geometry" />
        </mxCell>
        <mxCell id="Bfvj85vFazDPNNq3P2oq-7" style="edgeStyle=orthogonalEdgeStyle;rounded=0;orthogonalLoop=1;jettySize=auto;html=1;entryX=0.093;entryY=0;entryDx=0;entryDy=0;entryPerimeter=0;" parent="1" source="Bfvj85vFazDPNNq3P2oq-2" target="Y6noLsDlf5R4uo8bpIC0-201" edge="1">
          <mxGeometry relative="1" as="geometry" />
        </mxCell>
        <mxCell id="Bfvj85vFazDPNNq3P2oq-8" value="&lt;font style=&quot;font-size: 20px;&quot;&gt;Application Repo&lt;/font&gt;" style="text;html=1;align=center;verticalAlign=middle;whiteSpace=wrap;rounded=0;fontColor=#FF3333;" parent="1" vertex="1">
          <mxGeometry x="-1581.1799999999998" y="-270" width="60" height="30" as="geometry" />
        </mxCell>
        <mxCell id="Bfvj85vFazDPNNq3P2oq-9" value="&lt;font style=&quot;font-size: 20px;&quot;&gt;Helm Chart&amp;nbsp;&lt;/font&gt;" style="text;html=1;align=center;verticalAlign=middle;whiteSpace=wrap;rounded=0;fontColor=#FF3333;" parent="1" vertex="1">
          <mxGeometry x="-1259.9999999999998" y="-260" width="60" height="30" as="geometry" />
        </mxCell>
        <mxCell id="Bfvj85vFazDPNNq3P2oq-10" style="edgeStyle=orthogonalEdgeStyle;rounded=0;orthogonalLoop=1;jettySize=auto;html=1;entryX=0.167;entryY=-0.017;entryDx=0;entryDy=0;entryPerimeter=0;" parent="1" source="Y6noLsDlf5R4uo8bpIC0-192" target="Y6noLsDlf5R4uo8bpIC0-146" edge="1">
          <mxGeometry relative="1" as="geometry">
            <mxPoint x="1160" y="770" as="targetPoint" />
            <Array as="points">
              <mxPoint x="290" y="-1130" />
              <mxPoint x="1180" y="-1130" />
            </Array>
          </mxGeometry>
        </mxCell>
        <mxCell id="Bfvj85vFazDPNNq3P2oq-14" value="" style="sketch=0;outlineConnect=0;fontColor=#232F3E;gradientColor=none;fillColor=#C925D1;strokeColor=none;dashed=0;verticalLabelPosition=bottom;verticalAlign=top;align=center;html=1;fontSize=12;fontStyle=0;aspect=fixed;pointerEvents=1;shape=mxgraph.aws4.rds_proxy;" parent="1" vertex="1">
          <mxGeometry x="1070" y="1160" width="100" height="100" as="geometry" />
        </mxCell>
        <mxCell id="Bfvj85vFazDPNNq3P2oq-17" value="" style="sketch=0;outlineConnect=0;fontColor=#232F3E;gradientColor=none;fillColor=#7AA116;strokeColor=none;dashed=0;verticalLabelPosition=bottom;verticalAlign=top;align=center;html=1;fontSize=12;fontStyle=0;pointerEvents=1;shape=mxgraph.aws4.snapshot;" parent="1" vertex="1">
          <mxGeometry x="1250" y="1160" width="120" height="100" as="geometry" />
        </mxCell>
        <mxCell id="Bfvj85vFazDPNNq3P2oq-20" value="Snapshot" style="text;html=1;align=center;verticalAlign=middle;whiteSpace=wrap;rounded=0;fontSize=20;fontColor=#FF0000;" parent="1" vertex="1">
          <mxGeometry x="1280" y="1260" width="60" height="50" as="geometry" />
        </mxCell>
        <mxCell id="f_NNupDaaMzZWTMAwLuJ-10" value="AWS Secrets Manager" style="sketch=0;outlineConnect=0;fontColor=#232F3E;gradientColor=none;strokeColor=#ffffff;fillColor=#232F3E;dashed=0;verticalLabelPosition=middle;verticalAlign=bottom;align=center;html=1;whiteSpace=wrap;fontSize=10;fontStyle=1;spacing=3;shape=mxgraph.aws4.productIcon;prIcon=mxgraph.aws4.secrets_manager;" parent="1" vertex="1">
          <mxGeometry x="1160" y="1380" width="120" height="141" as="geometry" />
        </mxCell>
        <mxCell id="3ioJj0Dn1pjQIeYTbm-Q-6" style="edgeStyle=orthogonalEdgeStyle;rounded=0;orthogonalLoop=1;jettySize=auto;html=1;entryX=1;entryY=0.25;entryDx=0;entryDy=0;" edge="1" parent="1" source="3ioJj0Dn1pjQIeYTbm-Q-1" target="Y6noLsDlf5R4uo8bpIC0-206">
          <mxGeometry relative="1" as="geometry" />
        </mxCell>
        <mxCell id="3ioJj0Dn1pjQIeYTbm-Q-1" value="" style="verticalLabelPosition=bottom;html=1;verticalAlign=top;strokeWidth=1;align=center;outlineConnect=0;dashed=0;outlineConnect=0;shape=mxgraph.aws3d.elasticLoadBalancing;fillColor=#ECECEC;strokeColor=#5E5E5E;aspect=fixed;" vertex="1" parent="1">
          <mxGeometry x="-1490" y="900" width="120" height="115" as="geometry" />
        </mxCell>
        <mxCell id="3ioJj0Dn1pjQIeYTbm-Q-5" value="ALB Controller&lt;div&gt;&lt;br&gt;&lt;/div&gt;" style="text;html=1;align=center;verticalAlign=middle;whiteSpace=wrap;rounded=0;fontSize=20;fontColor=#FF3333;" vertex="1" parent="1">
          <mxGeometry x="-1460" y="1040" width="60" height="30" as="geometry" />
        </mxCell>
      </root>
    </mxGraphModel>
  </diagram>
</mxfile>
